<svg width="387" height="190" viewBox="0 0 817 620" fill="none" xmlns="http://www.w3.org/2000/svg">
<g filter="url(#filter0_d_1_324)">
<!-- 817, 620 -->
<ellipse cx="394.5" cy="293.5" rx="393.5" ry="293.5" fill="white"/>
</g>
<g filter="url(#filter1_d_1_324)">
<g filter="url(#filter2_d_1_324)">
<rect x="618.319" y="295.11" width="118.375" height="34.9007" transform="rotate(40.9936 618.319 295.11)" fill="#AED963"/>
<rect x="661.098" y="264.213" width="145.925" height="45.7936" rx="22.8968" transform="rotate(40.9936 661.098 264.213)" fill="#AED963"/>
<rect x="643.23" y="262" width="145.925" height="51.7506" rx="25.8753" transform="rotate(40.9936 643.23 262)" fill="#AED963"/>
<ellipse cx="683.363" cy="327.389" rx="87.8081" ry="28.7513" transform="rotate(32.2158 683.363 327.389)" fill="#8FBB40"/>
<ellipse cx="693.088" cy="329.282" rx="69.9357" ry="18.4258" transform="rotate(33.6257 693.088 329.282)" fill="#79A42E"/>
<path d="M666.052 433.038L657.804 447.141L646.092 438.321L600.321 390.657L618.466 352.456L688.133 412.34L666.052 433.038Z" fill="#79A42E" stroke="#79A42E"/>
<path d="M609.174 387.528C604.785 387.77 603.754 393.036 603.788 395.639L560.22 349.699L597.084 331.465C603.333 334.349 627.481 354.645 626.646 357.069C625.602 360.098 624.624 380.293 621.898 384.735C619.171 389.178 614.66 387.225 609.174 387.528Z" fill="#457F1B"/>
<rect x="599.556" y="321.509" width="117.315" height="12.5077" transform="rotate(40.9936 599.556 321.509)" fill="#8FBA44"/>
<path d="M537.07 481.091C527.942 478.424 454.849 395.154 419.444 353.853L420.927 336.822L492.18 351.603L510.396 437.356C523.847 453.087 546.198 483.757 537.07 481.091Z" fill="#3E732D"/>
<path d="M542.967 404.385L582.915 456.222L582.106 465.512L566.622 482.104L539.73 477.423L522.873 452.968L511.393 426.597C518.069 424.578 532.404 420.002 536.335 417.848C540.267 415.694 542.394 407.975 542.967 404.385Z" fill="#79A42E"/>
<path d="M660.768 448.958C658.264 441.876 621.111 405.726 602.847 388.536L593.556 405.667L615.869 427.11L621.992 464.303L636.093 490.49L657.533 486.116C659.655 476.681 663.271 456.04 660.768 448.958Z" fill="#477022"/>
<path d="M605.033 390.288C606.782 406.04 593.375 407.733 586.452 406.611L537.326 350.473L564.19 343.82L605.033 390.288Z" fill="#255315"/>
<path d="M612.536 420.58L590.321 424.886L590.052 427.983L541.756 382.439L554.009 367.125L612.536 420.58Z" fill="#A4CD65"/>
<path d="M589.547 424.82L581.501 454.54L540.643 404.183L541.251 379.276L589.547 424.82Z" fill="#90BC41"/>
<path d="M559.663 373.858C551.113 373.114 546.469 382.07 543.742 386.513L520.551 352.471L539.684 347.22L560.505 373.152C560.505 373.152 561.212 373.993 559.663 373.858Z" fill="#6A952C"/>
<path d="M545.56 383.551C540.74 388.747 541.879 401.95 542.63 408.256L508.523 355.574L519.597 347.546L545.56 383.551Z" fill="#5B862A"/>
<path d="M496.789 379.306L500.763 351.571L512.677 358.068L554.005 420.946L517.551 436.493L505.236 409.24L496.789 379.306Z" fill="#51781F"/>
<path d="M629.259 488.336L585.574 452.554L584.464 438.417L596.145 420.714L615.162 426.269L629.259 488.336Z" fill="#476F26"/>
<path d="M557.971 482.91C522.077 486.65 501.779 408.599 496.116 369.106L496.588 363.687L627.258 260.401C623.971 253.355 632.536 249.94 693.091 292.651C768.784 346.039 769.826 360.95 756.732 376.97C743.638 392.991 705.167 377.942 694.295 386.356C683.423 394.769 686.855 409.108 685.407 416.782C683.959 424.456 663.09 431.22 660.026 439.533C656.963 447.846 676.818 488.575 643.126 490.322C609.433 492.07 635.188 420.211 601.631 420.41C568.073 420.61 602.838 478.235 557.971 482.91Z" stroke="#ADD268" stroke-width="5"/>
</g>
<g filter="url(#filter3_d_1_324)">
<path d="M152.868 158.761C40.6504 222.984 20.3462 254.237 25.1832 259.853L605.619 299.497C675.271 249.546 709.763 201.709 717.824 181.557C707.195 135.966 578.52 112.18 448.889 107.224C343.426 103.193 194.477 134.948 152.868 158.761Z" fill="#E87204"/>
<path d="M145.141 168.323C118.054 185.172 81.2933 217.878 64.8476 245.629" stroke="#AE4005" stroke-width="5" stroke-linecap="round"/>
<path d="M245.75 133.635C192.543 158.413 165.456 188.145 114.185 237.7" stroke="#AE4005" stroke-width="5" stroke-linecap="round"/>
<path d="M163.522 235.718C203.185 203.672 304.762 126.103 397.631 111.831M271.87 235.718C301.86 193.101 383.894 169.513 425.686 170.305C437.294 182.199 449.871 218.869 445.034 251.575" stroke="#AE4005" stroke-width="5" stroke-miterlimit="3.86874" stroke-linecap="round"/>
<path d="M362.805 241.664C370.866 228.78 401.501 186.163 428.587 170.305" stroke="#AE4005" stroke-width="5"/>
<path d="M209.957 235.718C256.392 191.119 336.686 152.466 451.805 131.653C463.736 139.582 482.762 181.01 486.631 259.504" stroke="#AE4005" stroke-width="5"/>
<path d="M485.622 110.5C484.339 109.989 482.885 110.614 482.374 111.897C481.863 113.179 482.489 114.633 483.771 115.144L485.622 110.5ZM483.771 115.144C485.372 115.782 487.588 117.538 490.287 120.664C492.93 123.725 495.84 127.867 498.878 132.925C504.951 143.034 511.418 156.611 517.181 172.047C528.724 202.968 537.302 240.973 534.446 273.158L539.426 273.6C542.375 240.373 533.539 201.569 521.865 170.298C516.019 154.639 509.426 140.775 503.165 130.35C500.036 125.141 496.961 120.743 494.071 117.396C491.238 114.115 488.375 111.596 485.622 110.5L483.771 115.144Z" fill="#AE4005"/>
<path d="M548.361 116.986C547.377 116.018 545.794 116.032 544.826 117.017C543.858 118.001 543.872 119.584 544.857 120.552L548.361 116.986ZM544.857 120.552C552.308 127.874 563.036 146.221 570.801 174.559C578.54 202.798 583.272 240.735 578.946 287.022L583.924 287.488C588.305 240.612 583.524 202.069 575.624 173.238C567.75 144.505 556.711 125.191 548.361 116.986L544.857 120.552Z" fill="#AE4005"/>
<path d="M606.894 126.582C606.282 125.344 604.783 124.836 603.545 125.447C602.307 126.058 601.799 127.557 602.41 128.795L606.894 126.582ZM602.41 128.795C609.323 142.795 619.997 165.509 628.172 191.207C636.358 216.944 641.965 245.454 638.93 271.104L643.896 271.691C647.052 245.011 641.212 215.707 632.936 189.692C624.649 163.638 613.847 140.663 606.894 126.582L602.41 128.795Z" fill="#AE4005"/>
<path d="M665.944 142.519C665.377 141.26 663.896 140.699 662.637 141.266C661.379 141.833 660.818 143.314 661.385 144.573L665.944 142.519ZM661.385 144.573C665.256 153.165 671.876 167.915 676.859 183.457C681.885 199.138 685.053 215.073 682.509 226.242L687.385 227.353C690.258 214.736 686.654 197.635 681.62 181.931C676.542 166.089 669.812 151.106 665.944 142.519L661.385 144.573Z" fill="#AE4005"/>
<path d="M609.64 348.435C606.526 358.239 596.593 366.767 580.132 373.652C563.748 380.504 541.322 385.544 514.005 388.648C459.408 394.851 385.683 393.276 302.63 383.327C221.886 367.132 149.655 340.786 97.1892 318.058C70.9511 306.692 49.6669 296.235 34.746 288.413C27.2849 284.502 21.4205 281.253 17.3272 278.881C15.2792 277.694 13.6839 276.732 12.558 276.021C12.1182 275.743 11.7575 275.508 11.4737 275.316C11.9973 266.49 19.6326 258.827 34.7296 252.479C50.2376 245.959 72.8251 241.192 100.927 238.004C157.074 231.634 234.648 231.625 320.201 236.08C337.394 238.14 354.427 240.058 371.12 241.937C435.303 249.162 494.453 255.821 538.343 267.845C566.017 275.426 587.257 285.052 599.853 298.012C606.116 304.456 610.227 311.709 611.959 319.965C613.693 328.233 613.068 337.645 609.64 348.435Z" fill="#FF9907" stroke="#FDB94A" stroke-width="4"/>
<path d="M64.2849 247.961C65.2523 263.158 83.6328 313.175 99.111 316.347" stroke="#FDB94A" stroke-width="5"/>
<path d="M579.904 285.622C576.679 307.757 544.497 379.38 488.001 389.687" stroke="#FDB94A" stroke-width="5"/>
<path d="M161.991 238.05C161.991 256.881 173.987 307.03 218.1 317.337C273.241 330.222 296.459 308.418 322.578 317.337C348.698 326.257 427.057 382.75 479.296 355.99C531.535 329.231 534.437 273.729 536.372 271.747" stroke="#FDB94A" stroke-width="5"/>
<path d="M272.275 239.041C270.985 249.613 274.014 265.404 288.719 267.783C307.099 270.756 330.317 261.836 354.501 267.783C378.686 273.729 399.001 292.56 421.251 284.631C439.051 278.288 442.213 262.497 444.47 254.899" stroke="#FDB94A" stroke-width="5"/>
<path d="M211.329 238.05C207.782 253.907 216.939 283.244 254.861 289.587C302.263 297.515 318.229 280.957 340.96 294.542C364.177 308.418 483.167 358.963 486.069 261.836" stroke="#FDB94A" stroke-width="5"/>
<path d="M254.458 369.866C269.614 369.866 318.907 360.508 323.143 362.928C339.911 372.509 371.706 389.49 395.697 388.697" stroke="#FDB94A" stroke-width="5"/>
<path d="M111.687 238.05C116.524 262.497 165.861 341.124 208.426 356.981" stroke="#FDB94A" stroke-width="5"/>
<path d="M604.089 357.972C612.033 343.728 605.701 314.695 600.219 301.48C656.328 259.854 698.893 205.344 716.306 180.566C721.143 194.442 728.598 224.756 721.143 240.032C695.991 291.569 596.349 371.848 604.089 357.972Z" fill="#FDB94A"/>
<path d="M84.2413 206.791C68.1524 206.791 121.313 164.12 162.585 152.927C287.566 141.502 539.628 118.651 548.022 118.651C558.515 118.651 543.824 101.163 605.382 124.947C666.94 148.73 559.913 222.18 513.745 220.082C467.577 217.983 473.873 183.007 408.817 199.796C356.773 213.226 321.145 216.35 305.289 213.086C285.702 208.189 181.472 199.096 162.585 206.791C143.698 214.485 100.33 206.791 84.2413 206.791Z" fill="#FFDD15" fill-opacity="0.85"/>
<path d="M684.656 170.676C694.33 190.498 636.286 244.017 618.873 253.928C606.297 258.883 590.818 257.892 579.21 256.901C567.601 255.91 531.808 243.026 522.134 240.053C512.46 237.079 490.21 227.168 495.047 210.32C498.917 196.841 517.297 191.489 526.004 190.498C533.098 190.168 552.897 189.705 575.341 190.498C603.395 191.489 616.939 172.658 630.482 161.756C644.026 150.854 674.982 150.854 684.656 170.676Z" fill="white" fill-opacity="0.34"/>
<path d="M677.73 173.279C672.893 164.359 659.35 162.378 648.709 162.377C643.872 163.368 628.393 170.306 624.524 182.199C619.687 197.066 649.676 199.048 656.448 200.039C663.219 201.03 682.567 182.199 677.73 173.279Z" fill="white" fill-opacity="0.75"/>
<g filter="url(#filter4_d_1_324)">
<path d="M156.376 181.451C142.332 164.887 144.594 138.712 147.481 127.694L274.686 90.7537C297.42 108.456 333.279 151.467 294.841 181.898C246.793 219.935 173.931 202.156 156.376 181.451Z" fill="white"/>
</g>
<g filter="url(#filter5_di_1_324)">
<path d="M166.166 140.408C157.869 134.055 148.725 140.097 142.84 135.181C134.602 129.189 150.137 76.3841 215.113 66.2119C280.089 56.0397 333.567 136.2 308.129 153.237C282.691 170.275 265.535 145.418 250.619 145.04C235.703 144.661 209.836 176.62 195.916 175.697C181.997 174.774 174.463 146.761 166.166 140.408Z" fill="#FFDD15"/>
</g>
<path d="M228.542 88.5915C229.978 89.9029 230.608 92.3155 229.79 93.9421C226.042 97.5624 221.034 91.3803 217.088 87.2406C213.143 83.1008 217.255 83.8712 218.312 83.6877C219.368 83.5042 226.835 87.0322 228.542 88.5915Z" fill="#39B350"/>
<path d="M214.453 91.0392C212.752 91.7058 211.517 90.807 210.633 89.8469C208.807 87.566 212.137 81.4203 213.838 80.7537C215.539 80.0871 217.658 81.946 217.837 83.0283C218.016 84.1107 216.154 90.3726 214.453 91.0392Z" fill="#39B350"/>
<path d="M211.444 85.9949C211.236 86.6949 206.58 89.4379 204.819 89.7437C202.999 89.6887 202.993 87.4629 202.813 86.3805C202.634 85.2981 209.319 81.9101 210.024 81.7878C210.728 81.6655 211.677 85.2121 211.444 85.9949Z" fill="#39B350"/>
<path d="M202.327 79.0429C201.975 79.1041 200.035 78.3276 196.991 81.8255C193.601 87.6106 199.505 99.2043 202.907 97.8711C206.309 96.5379 202.679 78.9818 202.327 79.0429Z" fill="#39B350"/>
<path d="M225.239 83.9694C223.126 84.3364 219.557 81.4042 219.24 80.5575C218.59 78.8147 219.939 78.2093 220.995 78.0258C222.052 77.8423 225.579 79.4565 226.522 80.7773C227.465 82.0981 227.352 83.6024 225.239 83.9694Z" fill="#39B350"/>
<path d="M235.385 79.6086C234.794 78.2266 230.031 75.7135 227.387 75.0593C226.587 74.8271 224.271 73.7447 224.868 77.3526C225.465 80.9604 231.524 84.7332 233.696 84.727C235.869 84.7207 235.976 80.9906 235.385 79.6086Z" fill="#39B350"/>
<g filter="url(#filter6_d_1_324)">
<path d="M300.453 161.91C288.179 143.931 293.103 118.142 297.1 107.495L427.382 84.4011C448.182 104.444 479.448 151.066 438.111 177.206C386.441 209.881 315.796 184.384 300.453 161.91Z" fill="white"/>
</g>
<g filter="url(#filter7_di_1_324)">
<path d="M314.386 122.143C306.783 114.935 297.072 119.963 291.722 114.442C284.141 107.6 304.987 56.7514 370.646 53.6044C436.304 50.4575 481.297 135.913 454.257 150.128C427.218 164.344 412.697 137.784 397.901 135.807C383.106 133.831 354.114 162.839 340.366 160.428C326.617 158.018 321.988 129.351 314.386 122.143Z" fill="#FFDD15"/>
</g>
<path d="M381.713 77.3017C383.007 78.7599 383.386 81.2268 382.407 82.7568C378.309 85.9551 373.961 79.2698 370.46 74.7296C366.959 70.1895 370.97 71.3967 372.04 71.3275C373.109 71.2583 380.175 75.5679 381.713 77.3017Z" fill="#39B350"/>
<path d="M367.455 78.2241C365.695 78.7046 364.558 77.6781 363.777 76.6286C362.194 74.1643 366.134 68.4096 367.894 67.9291C369.654 67.4486 371.571 69.5246 371.639 70.6202C371.706 71.7158 369.214 77.7436 367.455 78.2241Z" fill="#39B350"/>
<path d="M364.977 72.8846C364.699 73.5585 359.788 75.7869 358.006 75.9022C356.201 75.6523 356.422 73.438 356.355 72.3424C356.287 71.2467 363.281 68.5943 363.994 68.5482C364.707 68.5021 365.289 72.1311 364.977 72.8846Z" fill="#39B350"/>
<path d="M356.618 64.9931C356.261 65.0162 354.412 64.0359 351.027 67.1881C347.064 72.5778 351.751 84.741 355.27 83.78C358.79 82.819 356.974 64.9701 356.618 64.9931Z" fill="#39B350"/>
<path d="M378.902 72.3507C376.764 72.4891 373.513 69.19 373.285 68.3141C372.816 66.5111 374.22 66.0537 375.289 65.9845C376.359 65.9153 379.702 67.8991 380.505 69.3138C381.308 70.7285 381.041 72.2124 378.902 72.3507Z" fill="#39B350"/>
<path d="M389.439 69.1022C388.992 67.6644 384.512 64.6543 381.949 63.7201C381.178 63.4033 378.985 62.0785 379.21 65.7305C379.435 69.3826 385.075 73.7844 387.236 74.0113C389.398 74.2382 389.885 70.54 389.439 69.1022Z" fill="#39B350"/>
<g filter="url(#filter8_d_1_324)">
<path d="M428.551 159.164C418.806 139.627 427.145 114.776 432.532 104.793L564.675 100.269C582.588 123.052 607.301 173.635 562.849 193.704C507.284 218.791 440.732 183.586 428.551 159.164Z" fill="white"/>
</g>
<g filter="url(#filter9_di_1_324)">
<path d="M447.688 121.735C441.126 113.525 430.832 117.137 426.273 110.916C419.683 103.071 447.155 55.6413 512.612 61.7725C578.069 67.9038 611.166 158.885 582.476 169.157C553.785 179.429 542.967 151.075 528.577 147.034C514.187 142.992 481.578 167.641 468.284 163.317C454.989 158.993 454.251 129.946 447.688 121.735Z" fill="#FFDD15"/>
</g>
<path d="M520.392 86.8041C521.478 88.4306 521.523 90.9275 520.347 92.3051C515.859 94.8958 512.449 87.6615 509.591 82.6713C506.732 77.6812 510.543 79.4419 511.612 79.524C512.68 79.6061 519.101 84.87 520.392 86.8041Z" fill="#39B350"/>
<path d="M506.143 85.7097C504.335 85.9377 503.347 84.7609 502.714 83.6114C501.477 80.9475 506.152 75.8024 507.959 75.5743C509.767 75.3463 511.388 77.6726 511.307 78.7673C511.227 79.8621 507.95 85.4816 506.143 85.7097Z" fill="#39B350"/>
<path d="M504.408 80.0718C504.041 80.7 498.878 82.2155 497.097 82.0787C495.343 81.5769 495.86 79.4148 495.94 78.3201C496.02 77.2254 503.304 75.5834 504.016 75.6381C504.729 75.6929 504.818 79.3693 504.408 80.0718Z" fill="#39B350"/>
<path d="M497.187 71.0763C496.831 71.0489 495.13 69.8173 491.354 72.4629C486.706 77.2432 489.716 89.951 493.331 89.4949C496.946 89.0388 497.543 71.1036 497.187 71.0763Z" fill="#39B350"/>
<path d="M518.272 81.5042C516.135 81.34 513.358 77.6145 513.25 76.7147C513.027 74.8628 514.478 74.6074 515.547 74.6895C516.616 74.7716 519.661 77.2074 520.266 78.7218C520.872 80.2362 520.409 81.6685 518.272 81.5042Z" fill="#39B350"/>
<path d="M529.144 79.771C528.895 78.2839 524.861 74.6713 522.448 73.385C521.726 72.9625 519.732 71.3414 519.465 74.9905C519.198 78.6396 524.193 83.794 526.304 84.3232C528.414 84.8523 529.393 81.258 529.144 79.771Z" fill="#39B350"/>
</g>
<g filter="url(#filter10_i_1_324)">
<path d="M256.313 425.499C197.445 409.142 198.465 358.538 206.333 335.281L265.035 348.889C264.882 351.927 266.081 358.382 272.095 359.903C278.109 361.423 282.956 355.88 284.627 352.919L352.486 372.164C344.957 396.758 315.18 441.857 256.313 425.499Z" fill="#EBDC65"/>
</g>
<path d="M205.488 363.875L252.757 356.504" stroke="#FFFCF2" stroke-width="6" stroke-linecap="round"/>
<path d="M218.144 402.883L264.601 363.191" stroke="#FFFCF2" stroke-width="6" stroke-linecap="round"/>
<path d="M259.058 425.038L272.011 373.308" stroke="#FFFCF2" stroke-width="6" stroke-linecap="round"/>
<path d="M303.531 424.836L281.43 367.69" stroke="#FFFCF2" stroke-width="6" stroke-linecap="round"/>
<path d="M337.869 396.403L292.857 364.905" stroke="#FFFCF2" stroke-width="6" stroke-linecap="round"/>
<g filter="url(#filter11_di_1_324)">
<path d="M194.956 404.145C185.618 381.505 197.527 348.553 203.626 334.242L204.719 336.733C198.147 382.692 216.671 407.986 221.895 413.121C227.118 418.256 260.787 439.134 297.577 428.192C327.009 419.438 349.253 389.675 357.221 374.544C358.853 408.734 335.339 434.647 310.427 445.577C285.514 456.507 265.026 452.128 246.952 448.174C228.879 444.221 206.63 432.444 194.956 404.145Z" fill="#F5A80C"/>
</g>
<path d="M208.244 336.671C202.208 361.848 203.037 414.859 254.64 425.491C319.143 438.782 349.077 388.514 353.227 372.582" stroke="#FFFCF2" stroke-width="6"/>
<g filter="url(#filter12_i_1_324)">
<path d="M386.689 430.842C337.527 390.721 359.612 343.019 376.8 324.183L426.951 361.619C425.539 364.445 423.985 371.084 429.071 375.04C434.156 378.996 441.078 375.746 443.904 373.627L500.412 420.246C482.988 440.495 435.851 470.962 386.689 430.842Z" fill="#EBDC65"/>
</g>
<path d="M364.064 351.024L412.096 363.738" stroke="#FFFCF2" stroke-width="6" stroke-linecap="round"/>
<path d="M359.826 393.405L420.572 375.04" stroke="#FFFCF2" stroke-width="6" stroke-linecap="round"/>
<path d="M389.493 431.548L423.398 387.754" stroke="#FFFCF2" stroke-width="6" stroke-linecap="round"/>
<path d="M431.874 449.912L434.699 386.341" stroke="#FFFCF2" stroke-width="6" stroke-linecap="round"/>
<path d="M476.396 437.198L446.729 388.46" stroke="#FFFCF2" stroke-width="6" stroke-linecap="round"/>
<g filter="url(#filter13_di_1_324)">
<path d="M337.244 384.928C337.81 359.5 362.886 333.129 374.659 322.063V324.888C349.23 365.857 356.294 397.642 359.119 404.706C361.944 411.769 385.254 445.674 424.81 450.619C456.454 454.574 490.029 435.55 503.921 424.484C491.206 457.682 458.03 472.515 429.776 472.515C401.522 472.515 383.864 459.801 368.324 448.5C352.784 437.198 336.538 416.714 337.244 384.928Z" fill="#F5A80C"/>
</g>
<path d="M378.037 326.301C361.791 347.727 340.459 398.49 385.101 430.135C440.902 469.69 490.347 434.373 500.942 420.952" stroke="#FFFCF2" stroke-width="6"/>
</g>
<defs>
<filter id="filter0_d_1_324" x="1" y="0" width="816" height="620" filterUnits="userSpaceOnUse" color-interpolation-filters="sRGB">
<feFlood flood-opacity="0" result="BackgroundImageFix"/>
<feColorMatrix in="SourceAlpha" type="matrix" values="0 0 0 0 0 0 0 0 0 0 0 0 0 0 0 0 0 0 127 0" result="hardAlpha"/>
<feOffset dx="16" dy="20"/>
<feGaussianBlur stdDeviation="6.5"/>
<feComposite in2="hardAlpha" operator="out"/>
<feColorMatrix type="matrix" values="0 0 0 0 0 0 0 0 0 0 0 0 0 0 0 0 0 0 0.25 0"/>
<feBlend mode="normal" in2="BackgroundImageFix" result="effect1_dropShadow_1_324"/>
<feBlend mode="normal" in="SourceGraphic" in2="effect1_dropShadow_1_324" result="shape"/>
</filter>
<filter id="filter1_d_1_324" x="5.44601" y="53.5198" width="764.137" height="447.334" filterUnits="userSpaceOnUse" color-interpolation-filters="sRGB">
<feFlood flood-opacity="0" result="BackgroundImageFix"/>
<feColorMatrix in="SourceAlpha" type="matrix" values="0 0 0 0 0 0 0 0 0 0 0 0 0 0 0 0 0 0 127 0" result="hardAlpha"/>
<feOffset dy="4"/>
<feGaussianBlur stdDeviation="2"/>
<feComposite in2="hardAlpha" operator="out"/>
<feColorMatrix type="matrix" values="0 0 0 0 0 0 0 0 0 0 0 0 0 0 0 0 0 0 0.25 0"/>
<feBlend mode="normal" in2="BackgroundImageFix" result="effect1_dropShadow_1_324"/>
<feBlend mode="normal" in="SourceGraphic" in2="effect1_dropShadow_1_324" result="shape"/>
</filter>
<filter id="filter2_d_1_324" x="408.444" y="253.639" width="360.139" height="256.215" filterUnits="userSpaceOnUse" color-interpolation-filters="sRGB">
<feFlood flood-opacity="0" result="BackgroundImageFix"/>
<feColorMatrix in="SourceAlpha" type="matrix" values="0 0 0 0 0 0 0 0 0 0 0 0 0 0 0 0 0 0 127 0" result="hardAlpha"/>
<feOffset dx="-4" dy="10"/>
<feGaussianBlur stdDeviation="3.5"/>
<feComposite in2="hardAlpha" operator="out"/>
<feColorMatrix type="matrix" values="0 0 0 0 0 0 0 0 0 0 0 0 0 0 0 0 0 0 0.25 0"/>
<feBlend mode="normal" in2="BackgroundImageFix" result="effect1_dropShadow_1_324"/>
<feBlend mode="normal" in="SourceGraphic" in2="effect1_dropShadow_1_324" result="shape"/>
</filter>
<filter id="filter3_d_1_324" x="0.446014" y="53.5198" width="728.855" height="358.802" filterUnits="userSpaceOnUse" color-interpolation-filters="sRGB">
<feFlood flood-opacity="0" result="BackgroundImageFix"/>
<feColorMatrix in="SourceAlpha" type="matrix" values="0 0 0 0 0 0 0 0 0 0 0 0 0 0 0 0 0 0 127 0" result="hardAlpha"/>
<feOffset dx="-2" dy="11"/>
<feGaussianBlur stdDeviation="3.5"/>
<feComposite in2="hardAlpha" operator="out"/>
<feColorMatrix type="matrix" values="0 0 0 0 0 0 0 0 0 0 0 0 0 0 0 0 0 0 0.25 0"/>
<feBlend mode="normal" in2="BackgroundImageFix" result="effect1_dropShadow_1_324"/>
<feBlend mode="normal" in="SourceGraphic" in2="effect1_dropShadow_1_324" result="shape"/>
</filter>
<filter id="filter4_d_1_324" x="141.319" y="90.7537" width="174.464" height="121.457" filterUnits="userSpaceOnUse" color-interpolation-filters="sRGB">
<feFlood flood-opacity="0" result="BackgroundImageFix"/>
<feColorMatrix in="SourceAlpha" type="matrix" values="0 0 0 0 0 0 0 0 0 0 0 0 0 0 0 0 0 0 127 0" result="hardAlpha"/>
<feOffset dy="4"/>
<feGaussianBlur stdDeviation="2"/>
<feComposite in2="hardAlpha" operator="out"/>
<feColorMatrix type="matrix" values="0 0 0 0 0 0 0 0 0 0 0 0 0 0 0 0 0 0 0.25 0"/>
<feBlend mode="normal" in2="BackgroundImageFix" result="effect1_dropShadow_1_324"/>
<feBlend mode="normal" in="SourceGraphic" in2="effect1_dropShadow_1_324" result="shape"/>
</filter>
<filter id="filter5_di_1_324" x="133.817" y="61.3232" width="185.779" height="123.393" filterUnits="userSpaceOnUse" color-interpolation-filters="sRGB">
<feFlood flood-opacity="0" result="BackgroundImageFix"/>
<feColorMatrix in="SourceAlpha" type="matrix" values="0 0 0 0 0 0 0 0 0 0 0 0 0 0 0 0 0 0 127 0" result="hardAlpha"/>
<feOffset dx="-1" dy="3"/>
<feGaussianBlur stdDeviation="3"/>
<feComposite in2="hardAlpha" operator="out"/>
<feColorMatrix type="matrix" values="0 0 0 0 0 0 0 0 0 0 0 0 0 0 0 0 0 0 0.16 0"/>
<feBlend mode="normal" in2="BackgroundImageFix" result="effect1_dropShadow_1_324"/>
<feBlend mode="normal" in="SourceGraphic" in2="effect1_dropShadow_1_324" result="shape"/>
<feColorMatrix in="SourceAlpha" type="matrix" values="0 0 0 0 0 0 0 0 0 0 0 0 0 0 0 0 0 0 127 0" result="hardAlpha"/>
<feOffset dx="-8" dy="-6"/>
<feGaussianBlur stdDeviation="2"/>
<feComposite in2="hardAlpha" operator="arithmetic" k2="-1" k3="1"/>
<feColorMatrix type="matrix" values="0 0 0 0 1 0 0 0 0 1 0 0 0 0 1 0 0 0 0.35 0"/>
<feBlend mode="normal" in2="shape" result="effect2_innerShadow_1_324"/>
</filter>
<filter id="filter6_d_1_324" x="288.661" y="84.4011" width="173.742" height="116.365" filterUnits="userSpaceOnUse" color-interpolation-filters="sRGB">
<feFlood flood-opacity="0" result="BackgroundImageFix"/>
<feColorMatrix in="SourceAlpha" type="matrix" values="0 0 0 0 0 0 0 0 0 0 0 0 0 0 0 0 0 0 127 0" result="hardAlpha"/>
<feOffset dy="4"/>
<feGaussianBlur stdDeviation="2"/>
<feComposite in2="hardAlpha" operator="out"/>
<feColorMatrix type="matrix" values="0 0 0 0 0 0 0 0 0 0 0 0 0 0 0 0 0 0 0.25 0"/>
<feBlend mode="normal" in2="BackgroundImageFix" result="effect1_dropShadow_1_324"/>
<feBlend mode="normal" in="SourceGraphic" in2="effect1_dropShadow_1_324" result="shape"/>
</filter>
<filter id="filter7_di_1_324" x="283.242" y="49.5198" width="184.007" height="120.051" filterUnits="userSpaceOnUse" color-interpolation-filters="sRGB">
<feFlood flood-opacity="0" result="BackgroundImageFix"/>
<feColorMatrix in="SourceAlpha" type="matrix" values="0 0 0 0 0 0 0 0 0 0 0 0 0 0 0 0 0 0 127 0" result="hardAlpha"/>
<feOffset dx="-1" dy="3"/>
<feGaussianBlur stdDeviation="3"/>
<feComposite in2="hardAlpha" operator="out"/>
<feColorMatrix type="matrix" values="0 0 0 0 0 0 0 0 0 0 0 0 0 0 0 0 0 0 0.16 0"/>
<feBlend mode="normal" in2="BackgroundImageFix" result="effect1_dropShadow_1_324"/>
<feBlend mode="normal" in="SourceGraphic" in2="effect1_dropShadow_1_324" result="shape"/>
<feColorMatrix in="SourceAlpha" type="matrix" values="0 0 0 0 0 0 0 0 0 0 0 0 0 0 0 0 0 0 127 0" result="hardAlpha"/>
<feOffset dx="-8" dy="-6"/>
<feGaussianBlur stdDeviation="2"/>
<feComposite in2="hardAlpha" operator="arithmetic" k2="-1" k3="1"/>
<feColorMatrix type="matrix" values="0 0 0 0 1 0 0 0 0 1 0 0 0 0 1 0 0 0 0.35 0"/>
<feBlend mode="normal" in2="shape" result="effect2_innerShadow_1_324"/>
</filter>
<filter id="filter8_d_1_324" x="420.055" y="100.269" width="171.831" height="110.063" filterUnits="userSpaceOnUse" color-interpolation-filters="sRGB">
<feFlood flood-opacity="0" result="BackgroundImageFix"/>
<feColorMatrix in="SourceAlpha" type="matrix" values="0 0 0 0 0 0 0 0 0 0 0 0 0 0 0 0 0 0 127 0" result="hardAlpha"/>
<feOffset dy="4"/>
<feGaussianBlur stdDeviation="2"/>
<feComposite in2="hardAlpha" operator="out"/>
<feColorMatrix type="matrix" values="0 0 0 0 0 0 0 0 0 0 0 0 0 0 0 0 0 0 0.25 0"/>
<feBlend mode="normal" in2="BackgroundImageFix" result="effect1_dropShadow_1_324"/>
<feBlend mode="normal" in="SourceGraphic" in2="effect1_dropShadow_1_324" result="shape"/>
</filter>
<filter id="filter9_di_1_324" x="418.32" y="57.2273" width="179.55" height="123.157" filterUnits="userSpaceOnUse" color-interpolation-filters="sRGB">
<feFlood flood-opacity="0" result="BackgroundImageFix"/>
<feColorMatrix in="SourceAlpha" type="matrix" values="0 0 0 0 0 0 0 0 0 0 0 0 0 0 0 0 0 0 127 0" result="hardAlpha"/>
<feOffset dx="-1" dy="3"/>
<feGaussianBlur stdDeviation="3"/>
<feComposite in2="hardAlpha" operator="out"/>
<feColorMatrix type="matrix" values="0 0 0 0 0 0 0 0 0 0 0 0 0 0 0 0 0 0 0.16 0"/>
<feBlend mode="normal" in2="BackgroundImageFix" result="effect1_dropShadow_1_324"/>
<feBlend mode="normal" in="SourceGraphic" in2="effect1_dropShadow_1_324" result="shape"/>
<feColorMatrix in="SourceAlpha" type="matrix" values="0 0 0 0 0 0 0 0 0 0 0 0 0 0 0 0 0 0 127 0" result="hardAlpha"/>
<feOffset dx="-8" dy="-6"/>
<feGaussianBlur stdDeviation="2"/>
<feComposite in2="hardAlpha" operator="arithmetic" k2="-1" k3="1"/>
<feColorMatrix type="matrix" values="0 0 0 0 1 0 0 0 0 1 0 0 0 0 1 0 0 0 0.35 0"/>
<feBlend mode="normal" in2="shape" result="effect2_innerShadow_1_324"/>
</filter>
<filter id="filter10_i_1_324" x="202.498" y="331.281" width="149.988" height="97.7081" filterUnits="userSpaceOnUse" color-interpolation-filters="sRGB">
<feFlood flood-opacity="0" result="BackgroundImageFix"/>
<feBlend mode="normal" in="SourceGraphic" in2="BackgroundImageFix" result="shape"/>
<feColorMatrix in="SourceAlpha" type="matrix" values="0 0 0 0 0 0 0 0 0 0 0 0 0 0 0 0 0 0 127 0" result="hardAlpha"/>
<feOffset dy="-9"/>
<feGaussianBlur stdDeviation="2"/>
<feComposite in2="hardAlpha" operator="arithmetic" k2="-1" k3="1"/>
<feColorMatrix type="matrix" values="0 0 0 0 0.720833 0 0 0 0 0.714826 0 0 0 0 0.714826 0 0 0 0.18 0"/>
<feBlend mode="normal" in2="shape" result="effect1_innerShadow_1_324"/>
</filter>
<filter id="filter11_di_1_324" x="185.505" y="334.242" width="173.796" height="129.235" filterUnits="userSpaceOnUse" color-interpolation-filters="sRGB">
<feFlood flood-opacity="0" result="BackgroundImageFix"/>
<feColorMatrix in="SourceAlpha" type="matrix" values="0 0 0 0 0 0 0 0 0 0 0 0 0 0 0 0 0 0 127 0" result="hardAlpha"/>
<feOffset dx="-2" dy="7"/>
<feGaussianBlur stdDeviation="2"/>
<feComposite in2="hardAlpha" operator="out"/>
<feColorMatrix type="matrix" values="0 0 0 0 0 0 0 0 0 0 0 0 0 0 0 0 0 0 0.25 0"/>
<feBlend mode="normal" in2="BackgroundImageFix" result="effect1_dropShadow_1_324"/>
<feBlend mode="normal" in="SourceGraphic" in2="effect1_dropShadow_1_324" result="shape"/>
<feColorMatrix in="SourceAlpha" type="matrix" values="0 0 0 0 0 0 0 0 0 0 0 0 0 0 0 0 0 0 127 0" result="hardAlpha"/>
<feOffset dx="-3" dy="5"/>
<feGaussianBlur stdDeviation="1.5"/>
<feComposite in2="hardAlpha" operator="arithmetic" k2="-1" k3="1"/>
<feColorMatrix type="matrix" values="0 0 0 0 1 0 0 0 0 1 0 0 0 0 1 0 0 0 0.29 0"/>
<feBlend mode="normal" in2="shape" result="effect2_innerShadow_1_324"/>
</filter>
<filter id="filter12_i_1_324" x="356.66" y="320.183" width="143.752" height="130.316" filterUnits="userSpaceOnUse" color-interpolation-filters="sRGB">
<feFlood flood-opacity="0" result="BackgroundImageFix"/>
<feBlend mode="normal" in="SourceGraphic" in2="BackgroundImageFix" result="shape"/>
<feColorMatrix in="SourceAlpha" type="matrix" values="0 0 0 0 0 0 0 0 0 0 0 0 0 0 0 0 0 0 127 0" result="hardAlpha"/>
<feOffset dy="-9"/>
<feGaussianBlur stdDeviation="2"/>
<feComposite in2="hardAlpha" operator="arithmetic" k2="-1" k3="1"/>
<feColorMatrix type="matrix" values="0 0 0 0 0.720833 0 0 0 0 0.714826 0 0 0 0 0.714826 0 0 0 0.18 0"/>
<feBlend mode="normal" in2="shape" result="effect1_innerShadow_1_324"/>
</filter>
<filter id="filter13_di_1_324" x="331.222" y="322.063" width="174.699" height="161.453" filterUnits="userSpaceOnUse" color-interpolation-filters="sRGB">
<feFlood flood-opacity="0" result="BackgroundImageFix"/>
<feColorMatrix in="SourceAlpha" type="matrix" values="0 0 0 0 0 0 0 0 0 0 0 0 0 0 0 0 0 0 127 0" result="hardAlpha"/>
<feOffset dx="-2" dy="7"/>
<feGaussianBlur stdDeviation="2"/>
<feComposite in2="hardAlpha" operator="out"/>
<feColorMatrix type="matrix" values="0 0 0 0 0 0 0 0 0 0 0 0 0 0 0 0 0 0 0.25 0"/>
<feBlend mode="normal" in2="BackgroundImageFix" result="effect1_dropShadow_1_324"/>
<feBlend mode="normal" in="SourceGraphic" in2="effect1_dropShadow_1_324" result="shape"/>
<feColorMatrix in="SourceAlpha" type="matrix" values="0 0 0 0 0 0 0 0 0 0 0 0 0 0 0 0 0 0 127 0" result="hardAlpha"/>
<feOffset dx="-3" dy="5"/>
<feGaussianBlur stdDeviation="1.5"/>
<feComposite in2="hardAlpha" operator="arithmetic" k2="-1" k3="1"/>
<feColorMatrix type="matrix" values="0 0 0 0 1 0 0 0 0 1 0 0 0 0 1 0 0 0 0.29 0"/>
<feBlend mode="normal" in2="shape" result="effect2_innerShadow_1_324"/>
</filter>
</defs>
</svg>
