<svg width="306" height="230" viewBox="0 0 816 740" fill="none" xmlns="http://www.w3.org/2000/svg">
<g filter="url(#filter0_d_1_30)">
<!-- 816, 740 -->
<ellipse cx="393.5" cy="413.5" rx="393.5" ry="293.5" fill="white"/>
</g>
<g filter="url(#filter1_di_1_30)">
<path d="M370.828 331.172C377.709 327.795 385.598 327.088 392.97 329.186L682.006 411.441C709.323 419.215 712.674 456.575 687.178 469.087L417.398 601.475C410.517 604.852 402.628 605.56 395.256 603.462L106.22 521.206C78.9036 513.432 75.552 476.072 101.049 463.561L370.828 331.172Z" fill="#E8ECD4"/>
</g>
<g filter="url(#filter2_di_1_30)">
<path d="M370.849 282.465C377.836 278.978 385.882 278.256 393.379 280.444L676.666 363.128C703.734 371.029 707.054 408.032 681.824 420.624L417.777 552.411C410.79 555.898 402.744 556.62 395.248 554.432L111.96 471.748C84.8928 463.848 81.5731 426.844 106.802 414.252L370.849 282.465Z" fill="#E3333A"/>
</g>
<g filter="url(#filter3_di_1_30)">
<path d="M370.828 234.697C377.709 231.32 385.598 230.613 392.97 232.711L682.006 314.966C709.323 322.74 712.674 360.1 687.178 372.612L417.398 505.001C410.517 508.378 402.628 509.085 395.256 506.987L106.22 424.732C78.9036 416.958 75.552 379.598 101.049 367.086L370.828 234.697Z" fill="#E8ECD4"/>
</g>
<g filter="url(#filter4_di_1_30)">
<path d="M370.849 178.57C377.836 175.082 385.882 174.36 393.379 176.548L676.666 259.232C703.734 267.133 707.054 304.136 681.824 316.728L417.777 448.515C410.79 452.002 402.744 452.724 395.248 450.536L111.96 367.852C84.8928 359.952 81.5731 322.949 106.802 310.357L370.849 178.57Z" fill="#E3333A"/>
</g>
<g filter="url(#filter5_di_1_30)">
<path d="M370.828 130.802C377.709 127.425 385.598 126.717 392.97 128.816L682.006 211.071C709.323 218.845 712.674 256.205 687.178 268.717L417.398 401.105C410.517 404.482 402.628 405.19 395.256 403.092L106.22 320.836C78.9036 313.062 75.552 275.702 101.049 263.19L370.828 130.802Z" fill="#E8ECD4"/>
</g>
<g filter="url(#filter6_di_1_30)">
<path d="M370.849 85.8056C377.836 82.3183 385.882 81.5964 393.379 83.7844L676.666 166.468C703.734 174.369 707.054 211.372 681.824 223.964L417.777 355.751C410.79 359.238 402.744 359.96 395.248 357.772L111.96 275.088C84.8928 267.188 81.5731 230.185 106.802 217.593L370.849 85.8056Z" fill="#E3333A"/>
</g>
<g filter="url(#filter7_di_1_30)">
<path d="M370.849 37.5684C377.836 34.0811 385.882 33.3593 393.379 35.5472L676.666 118.231C703.734 126.132 707.054 163.135 681.824 175.727L417.777 307.514C410.79 311.001 402.744 311.723 395.248 309.535L111.96 226.851C84.8928 218.951 81.5731 181.947 106.802 169.355L370.849 37.5684Z" fill="#E8ECD4"/>
</g>
<path d="M370.516 43.2335C377.503 39.7462 385.549 39.0243 393.045 41.2123L613.251 105.484C640.318 113.385 643.638 150.388 618.409 162.98L413.159 265.421C406.172 268.908 398.126 269.63 390.63 267.442L170.424 203.17C143.357 195.27 140.037 158.266 165.266 145.674L370.516 43.2335Z" fill="#FDFFF6"/>
<ellipse cx="391.294" cy="95.9727" rx="16.6384" ry="15.8821" transform="rotate(-73.1641 391.294 95.9727)" fill="#CFD6AD"/>
<circle cx="429.404" cy="184.15" r="8.3192" transform="rotate(-73.1641 429.404 184.15)" fill="#CFD6AD"/>
<circle cx="354.139" cy="93.4214" r="8.3192" transform="rotate(-73.1641 354.139 93.4214)" fill="#CFD6AD"/>
<circle cx="375.913" cy="136.358" r="8.3192" transform="rotate(-73.1641 375.913 136.358)" fill="#CFD6AD"/>
<circle cx="423.403" cy="141.479" r="8.3192" transform="rotate(-73.1641 423.403 141.479)" fill="#CFD6AD"/>
<circle cx="516.543" cy="155.85" r="8.3192" transform="rotate(-73.1641 516.543 155.85)" fill="#CFD6AD"/>
<circle cx="545.851" cy="126.636" r="8.3192" transform="rotate(-73.1641 545.851 126.636)" fill="#CFD6AD"/>
<circle cx="500.087" cy="105.61" r="8.3192" transform="rotate(-73.1641 500.087 105.61)" fill="#CFD6AD"/>
<circle cx="441.955" cy="89.531" r="8.3192" transform="rotate(-73.1641 441.955 89.531)" fill="#CFD6AD"/>
<circle cx="472.877" cy="178.584" r="8.3192" transform="rotate(-73.1641 472.877 178.584)" fill="#CFD6AD"/>
<path d="M403.702 214.399C408.1 215.73 410.586 220.374 409.255 224.771C407.925 229.169 403.281 231.655 398.883 230.324C394.486 228.994 391.999 224.35 393.33 219.952C394.661 215.555 399.305 213.069 403.702 214.399Z" fill="#CFD6AD"/>
<circle cx="355.375" cy="194.664" r="8.3192" transform="rotate(-73.1641 355.375 194.664)" fill="#CFD6AD"/>
<circle cx="271.458" cy="137.502" r="8.3192" transform="rotate(-73.1641 271.458 137.502)" fill="#CFD6AD"/>
<circle cx="275.389" cy="184.684" r="8.3192" transform="rotate(-73.1641 275.389 184.684)" fill="#CFD6AD"/>
<circle cx="217.722" cy="162.404" r="8.3192" transform="rotate(-73.1641 217.722 162.404)" fill="#CFD6AD"/>
<circle cx="471.869" cy="132.147" r="16.6384" transform="rotate(-73.1641 471.869 132.147)" fill="#CFD6AD"/>
<circle cx="394.195" cy="171.64" r="16.6384" transform="rotate(-73.1641 394.195 171.64)" fill="#CFD6AD"/>
<circle cx="315.037" cy="167.929" r="16.6384" transform="rotate(-73.1641 315.037 167.929)" fill="#CFD6AD"/>
<circle cx="332.352" cy="125.876" r="16.6384" transform="rotate(-73.1641 332.352 125.876)" fill="#CFD6AD"/>
<g filter="url(#filter8_d_1_30)">
<ellipse cx="439.005" cy="113.755" rx="33.8765" ry="25.9055" fill="#E3333A"/>
<path d="M415.589 107.778C415.589 110.171 413.226 112.26 410.111 112.26C406.996 112.26 404.633 110.171 404.633 107.778C404.633 105.384 406.996 103.296 410.111 103.296C413.226 103.296 415.589 105.384 415.589 107.778Z" fill="#E3333A" stroke="#4F050F"/>
<path d="M420.571 99.8073C420.571 102.201 418.208 104.289 415.093 104.289C411.978 104.289 409.615 102.201 409.615 99.8073C409.615 97.4135 411.978 95.3254 415.093 95.3254C418.208 95.3254 420.571 97.4135 420.571 99.8073Z" fill="#E3333A" stroke="#4F050F"/>
<path d="M428.542 94.8249C428.542 97.2186 426.179 99.3067 423.064 99.3067C419.949 99.3067 417.586 97.2186 417.586 94.8249C417.586 92.4311 419.949 90.343 423.064 90.343C426.179 90.343 428.542 92.4311 428.542 94.8249Z" fill="#E3333A" stroke="#4F050F"/>
<path d="M446.475 87.8506C446.475 90.2444 444.112 92.3324 440.997 92.3324C437.882 92.3324 435.519 90.2444 435.519 87.8506C435.519 85.4568 437.882 83.3688 440.997 83.3688C444.112 83.3688 446.475 85.4568 446.475 87.8506Z" fill="#E3333A" stroke="#4F050F"/>
<path d="M435.515 88.8462C435.515 91.24 433.151 93.328 430.037 93.328C426.922 93.328 424.558 91.24 424.558 88.8462C424.558 86.4525 426.922 84.3644 430.037 84.3644C433.151 84.3644 435.515 86.4525 435.515 88.8462Z" fill="#E3333A" stroke="#4F050F"/>
<path d="M441.494 91.8363C441.494 94.2301 439.131 96.3182 436.016 96.3182C432.901 96.3182 430.538 94.2301 430.538 91.8363C430.538 89.4426 432.901 87.3545 436.016 87.3545C439.131 87.3545 441.494 89.4426 441.494 91.8363Z" fill="#E3333A" stroke="#4F050F"/>
<path d="M455.442 91.8363C455.442 94.2301 453.079 96.3182 449.964 96.3182C446.849 96.3182 444.486 94.2301 444.486 91.8363C444.486 89.4426 446.849 87.3545 449.964 87.3545C453.079 87.3545 455.442 89.4426 455.442 91.8363Z" fill="#E3333A" stroke="#4F050F"/>
<path d="M464.41 96.8178C464.41 99.2115 462.046 101.3 458.931 101.3C455.817 101.3 453.453 99.2115 453.453 96.8178C453.453 94.424 455.817 92.3359 458.931 92.3359C462.046 92.3359 464.41 94.424 464.41 96.8178Z" fill="#E3333A" stroke="#4F050F"/>
<path d="M470.388 104.788C470.388 107.182 468.025 109.27 464.91 109.27C461.795 109.27 459.432 107.182 459.432 104.788C459.432 102.394 461.795 100.306 464.91 100.306C468.025 100.306 470.388 102.394 470.388 104.788Z" fill="#E3333A" stroke="#4F050F"/>
<path d="M474.373 113.755C474.373 116.149 472.01 118.237 468.895 118.237C465.78 118.237 463.417 116.149 463.417 113.755C463.417 111.361 465.78 109.273 468.895 109.273C472.01 109.273 474.373 111.361 474.373 113.755Z" fill="#E3333A" stroke="#4F050F"/>
<path d="M472.38 121.726C472.38 124.12 470.017 126.208 466.902 126.208C463.787 126.208 461.424 124.12 461.424 121.726C461.424 119.332 463.787 117.244 466.902 117.244C470.017 117.244 472.38 119.332 472.38 121.726Z" fill="#E3333A" stroke="#4F050F"/>
<path d="M462.418 104.788C462.418 107.182 460.054 109.27 456.94 109.27C453.825 109.27 451.461 107.182 451.461 104.788C451.461 102.394 453.825 100.306 456.94 100.306C460.054 100.306 462.418 102.394 462.418 104.788Z" fill="#E3333A" stroke="#4F050F"/>
<path d="M454.447 99.8073C454.447 102.201 452.084 104.289 448.969 104.289C445.854 104.289 443.491 102.201 443.491 99.8073C443.491 97.4135 445.854 95.3254 448.969 95.3254C452.084 95.3254 454.447 97.4135 454.447 99.8073Z" fill="#E3333A" stroke="#4F050F"/>
<path d="M444.482 98.8115C444.482 101.205 442.119 103.293 439.004 103.293C435.889 103.293 433.526 101.205 433.526 98.8115C433.526 96.4178 435.889 94.3297 439.004 94.3297C442.119 94.3297 444.482 96.4178 444.482 98.8115Z" fill="#E3333A" stroke="#4F050F"/>
<path d="M441.034 110.843C441.034 113.237 438.67 115.325 435.556 115.325C432.441 115.325 430.077 113.237 430.077 110.843C430.077 108.45 432.441 106.362 435.556 106.362C438.67 106.362 441.034 108.45 441.034 110.843Z" fill="#E3333A" stroke="#4F050F"/>
<path d="M451.38 110.843C451.38 113.237 449.017 115.325 445.902 115.325C442.787 115.325 440.424 113.237 440.424 110.843C440.424 108.45 442.787 106.362 445.902 106.362C449.017 106.362 451.38 108.45 451.38 110.843Z" fill="#E3333A" stroke="#4F050F"/>
<path d="M457.13 118.891C457.13 121.285 454.766 123.373 451.652 123.373C448.537 123.373 446.173 121.285 446.173 118.891C446.173 116.497 448.537 114.409 451.652 114.409C454.766 114.409 457.13 116.497 457.13 118.891Z" fill="#E3333A" stroke="#4F050F"/>
<path d="M451.38 124.639C451.38 127.033 449.017 129.121 445.902 129.121C442.787 129.121 440.424 127.033 440.424 124.639C440.424 122.245 442.787 120.157 445.902 120.157C449.017 120.157 451.38 122.245 451.38 124.639Z" fill="#E3333A" stroke="#4F050F"/>
<path d="M439.885 124.639C439.885 127.033 437.522 129.121 434.407 129.121C431.292 129.121 428.929 127.033 428.929 124.639C428.929 122.245 431.292 120.157 434.407 120.157C437.522 120.157 439.885 122.245 439.885 124.639Z" fill="#E3333A" stroke="#4F050F"/>
<path d="M435.287 118.891C435.287 121.285 432.923 123.373 429.809 123.373C426.694 123.373 424.33 121.285 424.33 118.891C424.33 116.497 426.694 114.409 429.809 114.409C432.923 114.409 435.287 116.497 435.287 118.891Z" fill="#E3333A" stroke="#4F050F"/>
<path d="M434.519 100.803C434.519 103.197 432.155 105.285 429.04 105.285C425.926 105.285 423.562 103.197 423.562 100.803C423.562 98.4092 425.926 96.3212 429.04 96.3212C432.155 96.3212 434.519 98.4092 434.519 100.803Z" fill="#E3333A" stroke="#4F050F"/>
<path d="M427.546 105.784C427.546 108.178 425.182 110.266 422.067 110.266C418.953 110.266 416.589 108.178 416.589 105.784C416.589 103.391 418.953 101.303 422.067 101.303C425.182 101.303 427.546 103.391 427.546 105.784Z" fill="#E3333A" stroke="#4F050F"/>
<path d="M422.564 113.755C422.564 116.149 420.201 118.237 417.086 118.237C413.971 118.237 411.608 116.149 411.608 113.755C411.608 111.361 413.971 109.273 417.086 109.273C420.201 109.273 422.564 111.361 422.564 113.755Z" fill="#E3333A" stroke="#4F050F"/>
<path d="M468.396 113.755C468.396 116.149 466.032 118.237 462.917 118.237C459.803 118.237 457.439 116.149 457.439 113.755C457.439 111.361 459.803 109.273 462.917 109.273C466.032 109.273 468.396 111.361 468.396 113.755Z" fill="#E3333A" stroke="#4F050F"/>
<path d="M414.592 117.741C414.592 120.134 412.229 122.222 409.114 122.222C405.999 122.222 403.636 120.134 403.636 117.741C403.636 115.347 405.999 113.259 409.114 113.259C412.229 113.259 414.592 115.347 414.592 117.741Z" fill="#E3333A" stroke="#4F050F"/>
<path d="M419.575 123.719C419.575 126.113 417.211 128.201 414.097 128.201C410.982 128.201 408.618 126.113 408.618 123.719C408.618 121.325 410.982 119.237 414.097 119.237C417.211 119.237 419.575 121.325 419.575 123.719Z" fill="#E3333A" stroke="#4F050F"/>
<path d="M421.567 126.708C421.567 129.102 419.203 131.19 416.088 131.19C412.974 131.19 410.61 129.102 410.61 126.708C410.61 124.314 412.974 122.226 416.088 122.226C419.203 122.226 421.567 124.314 421.567 126.708Z" fill="#E3333A" stroke="#4F050F"/>
<path d="M428.542 133.683C428.542 136.077 426.179 138.165 423.064 138.165C419.949 138.165 417.586 136.077 417.586 133.683C417.586 131.289 419.949 129.201 423.064 129.201C426.179 129.201 428.542 131.289 428.542 133.683Z" fill="#E3333A" stroke="#4F050F"/>
<path d="M437.508 136.671C437.508 139.065 435.144 141.153 432.03 141.153C428.915 141.153 426.552 139.065 426.552 136.671C426.552 134.277 428.915 132.189 432.03 132.189C435.144 132.189 437.508 134.277 437.508 136.671Z" fill="#E3333A" stroke="#4F050F"/>
<path d="M448.468 137.668C448.468 140.062 446.105 142.15 442.99 142.15C439.875 142.15 437.512 140.062 437.512 137.668C437.512 135.274 439.875 133.186 442.99 133.186C446.105 133.186 448.468 135.274 448.468 137.668Z" fill="#E3333A" stroke="#4F050F"/>
<path d="M458.433 135.675C458.433 138.069 456.07 140.157 452.955 140.157C449.84 140.157 447.477 138.069 447.477 135.675C447.477 133.281 449.84 131.193 452.955 131.193C456.07 131.193 458.433 133.281 458.433 135.675Z" fill="#E3333A" stroke="#4F050F"/>
<path d="M467.4 129.698C467.4 132.092 465.037 134.18 461.922 134.18C458.807 134.18 456.444 132.092 456.444 129.698C456.444 127.304 458.807 125.216 461.922 125.216C465.037 125.216 467.4 127.304 467.4 129.698Z" fill="#E3333A" stroke="#4F050F"/>
<path d="M437.585 103.946C437.585 106.339 435.222 108.427 432.107 108.427C428.992 108.427 426.629 106.339 426.629 103.946C426.629 101.552 428.992 99.4637 432.107 99.4637C435.222 99.4637 437.585 101.552 437.585 103.946Z" fill="#E3333A" stroke="#4F050F"/>
<path d="M431.837 111.993C431.837 114.387 429.474 116.475 426.359 116.475C423.244 116.475 420.881 114.387 420.881 111.993C420.881 109.599 423.244 107.511 426.359 107.511C429.474 107.511 431.837 109.599 431.837 111.993Z" fill="#E3333A" stroke="#4F050F"/>
<path d="M447.932 105.095C447.932 107.489 445.569 109.577 442.454 109.577C439.339 109.577 436.976 107.489 436.976 105.095C436.976 102.701 439.339 100.613 442.454 100.613C445.569 100.613 447.932 102.701 447.932 105.095Z" fill="#E3333A" stroke="#4F050F"/>
<path d="M459.428 106.244C459.428 108.638 457.065 110.726 453.95 110.726C450.835 110.726 448.472 108.638 448.472 106.244C448.472 103.85 450.835 101.762 453.95 101.762C457.065 101.762 459.428 103.85 459.428 106.244Z" fill="#E3333A" stroke="#4F050F"/>
<path d="M461.729 114.292C461.729 116.685 459.366 118.773 456.251 118.773C453.136 118.773 450.773 116.685 450.773 114.292C450.773 111.898 453.136 109.81 456.251 109.81C459.366 109.81 461.729 111.898 461.729 114.292Z" fill="#E3333A" stroke="#4F050F"/>
<path d="M457.13 115.442C457.13 117.836 454.766 119.924 451.652 119.924C448.537 119.924 446.173 117.836 446.173 115.442C446.173 113.048 448.537 110.96 451.652 110.96C454.766 110.96 457.13 113.048 457.13 115.442Z" fill="#E3333A" stroke="#4F050F"/>
<path d="M454.83 123.489C454.83 125.883 452.466 127.971 449.352 127.971C446.237 127.971 443.873 125.883 443.873 123.489C443.873 121.096 446.237 119.007 449.352 119.007C452.466 119.007 454.83 121.096 454.83 123.489Z" fill="#E3333A" stroke="#4F050F"/>
<path d="M447.932 126.938C447.932 129.332 445.569 131.42 442.454 131.42C439.339 131.42 436.976 129.332 436.976 126.938C436.976 124.544 439.339 122.456 442.454 122.456C445.569 122.456 447.932 124.544 447.932 126.938Z" fill="#E3333A" stroke="#4F050F"/>
<path d="M450.233 108.544C450.233 110.938 447.869 113.026 444.755 113.026C441.64 113.026 439.276 110.938 439.276 108.544C439.276 106.15 441.64 104.062 444.755 104.062C447.869 104.062 450.233 106.15 450.233 108.544Z" fill="#E3333A" stroke="#4F050F"/>
<path d="M441.034 109.693C441.034 112.086 438.67 114.174 435.556 114.174C432.441 114.174 430.077 112.086 430.077 109.693C430.077 107.299 432.441 105.211 435.556 105.211C438.67 105.211 441.034 107.299 441.034 109.693Z" fill="#E3333A" stroke="#4F050F"/>
<path d="M464.027 124.639C464.027 127.033 461.663 129.121 458.549 129.121C455.434 129.121 453.07 127.033 453.07 124.639C453.07 122.245 455.434 120.157 458.549 120.157C461.663 120.157 464.027 122.245 464.027 124.639Z" fill="#E3333A" stroke="#4F050F"/>
<path d="M457.13 129.238C457.13 131.632 454.766 133.72 451.652 133.72C448.537 133.72 446.173 131.632 446.173 129.238C446.173 126.844 448.537 124.756 451.652 124.756C454.766 124.756 457.13 126.844 457.13 129.238Z" fill="#E3333A" stroke="#4F050F"/>
<path d="M446.783 131.537C446.783 133.931 444.42 136.019 441.305 136.019C438.19 136.019 435.827 133.931 435.827 131.537C435.827 129.143 438.19 127.055 441.305 127.055C444.42 127.055 446.783 129.143 446.783 131.537Z" fill="#E3333A" stroke="#4F050F"/>
<path d="M437.585 131.537C437.585 133.931 435.222 136.019 432.107 136.019C428.992 136.019 426.629 133.931 426.629 131.537C426.629 129.143 428.992 127.055 432.107 127.055C435.222 127.055 437.585 129.143 437.585 131.537Z" fill="#E3333A" stroke="#4F050F"/>
<path d="M429.538 128.088C429.538 130.482 427.175 132.57 424.06 132.57C420.945 132.57 418.582 130.482 418.582 128.088C418.582 125.694 420.945 123.606 424.06 123.606C427.175 123.606 429.538 125.694 429.538 128.088Z" fill="#E3333A" stroke="#4F050F"/>
<path d="M427.238 122.34C427.238 124.734 424.874 126.822 421.759 126.822C418.645 126.822 416.281 124.734 416.281 122.34C416.281 119.947 418.645 117.859 421.759 117.859C424.874 117.859 427.238 119.947 427.238 122.34Z" fill="#E3333A" stroke="#4F050F"/>
<path d="M439.885 124.639C439.885 127.033 437.522 129.121 434.407 129.121C431.292 129.121 428.929 127.033 428.929 124.639C428.929 122.245 431.292 120.157 434.407 120.157C437.522 120.157 439.885 122.245 439.885 124.639Z" fill="#E3333A" stroke="#4F050F"/>
<path d="M435.287 117.741C435.287 120.134 432.923 122.222 429.809 122.222C426.694 122.222 424.33 120.134 424.33 117.741C424.33 115.347 426.694 113.259 429.809 113.259C432.923 113.259 435.287 115.347 435.287 117.741Z" fill="#E3333A" stroke="#4F050F"/>
<path d="M447.473 117.358C447.473 120.213 444.912 122.606 441.65 122.606C438.388 122.606 435.827 120.213 435.827 117.358C435.827 114.503 438.388 112.11 441.65 112.11C444.912 112.11 447.473 114.503 447.473 117.358Z" fill="#E3333A" stroke="#4F050F"/>
</g>
<g filter="url(#filter9_d_1_30)">
<ellipse cx="323.978" cy="133.546" rx="33.8765" ry="25.9055" fill="#E3333A"/>
<path d="M300.562 127.568C300.562 129.962 298.198 132.05 295.084 132.05C291.969 132.05 289.605 129.962 289.605 127.568C289.605 125.174 291.969 123.086 295.084 123.086C298.198 123.086 300.562 125.174 300.562 127.568Z" fill="#E3333A" stroke="#4F050F"/>
<path d="M305.544 119.598C305.544 121.992 303.18 124.08 300.066 124.08C296.951 124.08 294.588 121.992 294.588 119.598C294.588 117.205 296.951 115.116 300.066 115.116C303.18 115.116 305.544 117.205 305.544 119.598Z" fill="#E3333A" stroke="#4F050F"/>
<path d="M313.515 114.615C313.515 117.009 311.151 119.097 308.037 119.097C304.922 119.097 302.558 117.009 302.558 114.615C302.558 112.222 304.922 110.134 308.037 110.134C311.151 110.134 313.515 112.222 313.515 114.615Z" fill="#E3333A" stroke="#4F050F"/>
<path d="M331.448 107.641C331.448 110.034 329.084 112.122 325.969 112.122C322.855 112.122 320.491 110.034 320.491 107.641C320.491 105.247 322.855 103.159 325.969 103.159C329.084 103.159 331.448 105.247 331.448 107.641Z" fill="#E3333A" stroke="#4F050F"/>
<path d="M320.488 108.636C320.488 111.03 318.124 113.118 315.009 113.118C311.895 113.118 309.531 111.03 309.531 108.636C309.531 106.242 311.895 104.154 315.009 104.154C318.124 104.154 320.488 106.242 320.488 108.636Z" fill="#E3333A" stroke="#4F050F"/>
<path d="M326.466 111.627C326.466 114.02 324.103 116.109 320.988 116.109C317.873 116.109 315.51 114.02 315.51 111.627C315.51 109.233 317.873 107.145 320.988 107.145C324.103 107.145 326.466 109.233 326.466 111.627Z" fill="#E3333A" stroke="#4F050F"/>
<path d="M340.415 111.627C340.415 114.02 338.052 116.109 334.937 116.109C331.822 116.109 329.459 114.02 329.459 111.627C329.459 109.233 331.822 107.145 334.937 107.145C338.052 107.145 340.415 109.233 340.415 111.627Z" fill="#E3333A" stroke="#4F050F"/>
<path d="M349.382 116.608C349.382 119.001 347.019 121.09 343.904 121.09C340.789 121.09 338.426 119.001 338.426 116.608C338.426 114.214 340.789 112.126 343.904 112.126C347.019 112.126 349.382 114.214 349.382 116.608Z" fill="#E3333A" stroke="#4F050F"/>
<path d="M355.361 124.578C355.361 126.972 352.997 129.06 349.883 129.06C346.768 129.06 344.405 126.972 344.405 124.578C344.405 122.184 346.768 120.096 349.883 120.096C352.997 120.096 355.361 122.184 355.361 124.578Z" fill="#E3333A" stroke="#4F050F"/>
<path d="M359.346 133.546C359.346 135.94 356.982 138.028 353.867 138.028C350.753 138.028 348.389 135.94 348.389 133.546C348.389 131.152 350.753 129.064 353.867 129.064C356.982 129.064 359.346 131.152 359.346 133.546Z" fill="#E3333A" stroke="#4F050F"/>
<path d="M357.353 141.517C357.353 143.911 354.99 145.999 351.875 145.999C348.76 145.999 346.397 143.911 346.397 141.517C346.397 139.123 348.76 137.035 351.875 137.035C354.99 137.035 357.353 139.123 357.353 141.517Z" fill="#E3333A" stroke="#4F050F"/>
<path d="M347.39 124.578C347.39 126.972 345.027 129.06 341.912 129.06C338.797 129.06 336.434 126.972 336.434 124.578C336.434 122.184 338.797 120.096 341.912 120.096C345.027 120.096 347.39 122.184 347.39 124.578Z" fill="#E3333A" stroke="#4F050F"/>
<path d="M339.42 119.598C339.42 121.992 337.056 124.08 333.942 124.08C330.827 124.08 328.463 121.992 328.463 119.598C328.463 117.204 330.827 115.116 333.942 115.116C337.056 115.116 339.42 117.204 339.42 119.598Z" fill="#E3333A" stroke="#4F050F"/>
<path d="M329.455 118.602C329.455 120.995 327.091 123.083 323.977 123.083C320.862 123.083 318.499 120.995 318.499 118.602C318.499 116.208 320.862 114.12 323.977 114.12C327.091 114.12 329.455 116.208 329.455 118.602Z" fill="#E3333A" stroke="#4F050F"/>
<path d="M326.006 130.633C326.006 133.027 323.643 135.115 320.528 135.115C317.413 135.115 315.05 133.027 315.05 130.633C315.05 128.24 317.413 126.151 320.528 126.151C323.643 126.151 326.006 128.24 326.006 130.633Z" fill="#E3333A" stroke="#4F050F"/>
<path d="M336.353 130.633C336.353 133.027 333.989 135.115 330.875 135.115C327.76 135.115 325.396 133.027 325.396 130.633C325.396 128.24 327.76 126.151 330.875 126.151C333.989 126.151 336.353 128.24 336.353 130.633Z" fill="#E3333A" stroke="#4F050F"/>
<path d="M342.103 138.681C342.103 141.075 339.739 143.163 336.624 143.163C333.51 143.163 331.146 141.075 331.146 138.681C331.146 136.288 333.51 134.199 336.624 134.199C339.739 134.199 342.103 136.288 342.103 138.681Z" fill="#E3333A" stroke="#4F050F"/>
<path d="M336.353 144.43C336.353 146.824 333.989 148.912 330.875 148.912C327.76 148.912 325.396 146.824 325.396 144.43C325.396 142.036 327.76 139.948 330.875 139.948C333.989 139.948 336.353 142.036 336.353 144.43Z" fill="#E3333A" stroke="#4F050F"/>
<path d="M324.858 144.43C324.858 146.824 322.494 148.912 319.379 148.912C316.265 148.912 313.901 146.824 313.901 144.43C313.901 142.036 316.265 139.948 319.379 139.948C322.494 139.948 324.858 142.036 324.858 144.43Z" fill="#E3333A" stroke="#4F050F"/>
<path d="M320.259 138.681C320.259 141.075 317.896 143.163 314.781 143.163C311.666 143.163 309.303 141.075 309.303 138.681C309.303 136.288 311.666 134.199 314.781 134.199C317.896 134.199 320.259 136.288 320.259 138.681Z" fill="#E3333A" stroke="#4F050F"/>
<path d="M319.491 120.593C319.491 122.987 317.127 125.075 314.013 125.075C310.898 125.075 308.534 122.987 308.534 120.593C308.534 118.199 310.898 116.111 314.013 116.111C317.127 116.111 319.491 118.199 319.491 120.593Z" fill="#E3333A" stroke="#4F050F"/>
<path d="M312.518 125.575C312.518 127.969 310.155 130.057 307.04 130.057C303.925 130.057 301.562 127.969 301.562 125.575C301.562 123.182 303.925 121.094 307.04 121.094C310.155 121.094 312.518 123.182 312.518 125.575Z" fill="#E3333A" stroke="#4F050F"/>
<path d="M307.537 133.546C307.537 135.94 305.174 138.028 302.059 138.028C298.944 138.028 296.581 135.94 296.581 133.546C296.581 131.152 298.944 129.064 302.059 129.064C305.174 129.064 307.537 131.152 307.537 133.546Z" fill="#E3333A" stroke="#4F050F"/>
<path d="M353.368 133.546C353.368 135.94 351.005 138.028 347.89 138.028C344.775 138.028 342.412 135.94 342.412 133.546C342.412 131.152 344.775 129.064 347.89 129.064C351.005 129.064 353.368 131.152 353.368 133.546Z" fill="#E3333A" stroke="#4F050F"/>
<path d="M299.565 137.532C299.565 139.925 297.202 142.013 294.087 142.013C290.972 142.013 288.609 139.925 288.609 137.532C288.609 135.138 290.972 133.05 294.087 133.05C297.202 133.05 299.565 135.138 299.565 137.532Z" fill="#E3333A" stroke="#4F050F"/>
<path d="M304.548 143.51C304.548 145.904 302.184 147.992 299.07 147.992C295.955 147.992 293.591 145.904 293.591 143.51C293.591 141.117 295.955 139.028 299.07 139.028C302.184 139.028 304.548 141.117 304.548 143.51Z" fill="#E3333A" stroke="#4F050F"/>
<path d="M306.539 146.498C306.539 148.892 304.176 150.98 301.061 150.98C297.946 150.98 295.583 148.892 295.583 146.498C295.583 144.105 297.946 142.016 301.061 142.016C304.176 142.016 306.539 144.105 306.539 146.498Z" fill="#E3333A" stroke="#4F050F"/>
<path d="M313.515 153.473C313.515 155.867 311.151 157.955 308.037 157.955C304.922 157.955 302.558 155.867 302.558 153.473C302.558 151.079 304.922 148.991 308.037 148.991C311.151 148.991 313.515 151.079 313.515 153.473Z" fill="#E3333A" stroke="#4F050F"/>
<path d="M322.481 156.462C322.481 158.855 320.117 160.944 317.003 160.944C313.888 160.944 311.524 158.855 311.524 156.462C311.524 154.068 313.888 151.98 317.003 151.98C320.117 151.98 322.481 154.068 322.481 156.462Z" fill="#E3333A" stroke="#4F050F"/>
<path d="M333.44 157.459C333.44 159.853 331.077 161.941 327.962 161.941C324.847 161.941 322.484 159.853 322.484 157.459C322.484 155.065 324.847 152.977 327.962 152.977C331.077 152.977 333.44 155.065 333.44 157.459Z" fill="#E3333A" stroke="#4F050F"/>
<path d="M343.406 155.466C343.406 157.86 341.042 159.948 337.928 159.948C334.813 159.948 332.449 157.86 332.449 155.466C332.449 153.072 334.813 150.984 337.928 150.984C341.042 150.984 343.406 153.072 343.406 155.466Z" fill="#E3333A" stroke="#4F050F"/>
<path d="M352.373 149.488C352.373 151.882 350.009 153.97 346.894 153.97C343.78 153.97 341.416 151.882 341.416 149.488C341.416 147.094 343.78 145.006 346.894 145.006C350.009 145.006 352.373 147.094 352.373 149.488Z" fill="#E3333A" stroke="#4F050F"/>
<path d="M322.558 123.737C322.558 126.13 320.194 128.218 317.08 128.218C313.965 128.218 311.601 126.13 311.601 123.737C311.601 121.343 313.965 119.255 317.08 119.255C320.194 119.255 322.558 121.343 322.558 123.737Z" fill="#E3333A" stroke="#4F050F"/>
<path d="M316.81 131.784C316.81 134.177 314.447 136.265 311.332 136.265C308.217 136.265 305.854 134.177 305.854 131.784C305.854 129.39 308.217 127.302 311.332 127.302C314.447 127.302 316.81 129.39 316.81 131.784Z" fill="#E3333A" stroke="#4F050F"/>
<path d="M332.904 124.886C332.904 127.28 330.541 129.368 327.426 129.368C324.311 129.368 321.948 127.28 321.948 124.886C321.948 122.492 324.311 120.404 327.426 120.404C330.541 120.404 332.904 122.492 332.904 124.886Z" fill="#E3333A" stroke="#4F050F"/>
<path d="M344.401 126.035C344.401 128.429 342.037 130.517 338.922 130.517C335.808 130.517 333.444 128.429 333.444 126.035C333.444 123.641 335.808 121.553 338.922 121.553C342.037 121.553 344.401 123.641 344.401 126.035Z" fill="#E3333A" stroke="#4F050F"/>
<path d="M346.702 134.082C346.702 136.476 344.338 138.564 341.224 138.564C338.109 138.564 335.745 136.476 335.745 134.082C335.745 131.688 338.109 129.6 341.224 129.6C344.338 129.6 346.702 131.688 346.702 134.082Z" fill="#E3333A" stroke="#4F050F"/>
<path d="M342.103 135.232C342.103 137.626 339.739 139.714 336.624 139.714C333.51 139.714 331.146 137.626 331.146 135.232C331.146 132.838 333.51 130.75 336.624 130.75C339.739 130.75 342.103 132.838 342.103 135.232Z" fill="#E3333A" stroke="#4F050F"/>
<path d="M339.803 143.279C339.803 145.673 337.439 147.761 334.325 147.761C331.21 147.761 328.846 145.673 328.846 143.279C328.846 140.885 331.21 138.797 334.325 138.797C337.439 138.797 339.803 140.885 339.803 143.279Z" fill="#E3333A" stroke="#4F050F"/>
<path d="M332.904 146.728C332.904 149.122 330.541 151.21 327.426 151.21C324.311 151.21 321.948 149.122 321.948 146.728C321.948 144.335 324.311 142.246 327.426 142.246C330.541 142.246 332.904 144.335 332.904 146.728Z" fill="#E3333A" stroke="#4F050F"/>
<path d="M335.205 128.334C335.205 130.728 332.842 132.816 329.727 132.816C326.612 132.816 324.249 130.728 324.249 128.334C324.249 125.94 326.612 123.852 329.727 123.852C332.842 123.852 335.205 125.94 335.205 128.334Z" fill="#E3333A" stroke="#4F050F"/>
<path d="M326.006 129.484C326.006 131.877 323.643 133.965 320.528 133.965C317.413 133.965 315.05 131.877 315.05 129.484C315.05 127.09 317.413 125.002 320.528 125.002C323.643 125.002 326.006 127.09 326.006 129.484Z" fill="#E3333A" stroke="#4F050F"/>
<path d="M348.999 144.43C348.999 146.824 346.636 148.912 343.521 148.912C340.406 148.912 338.043 146.824 338.043 144.43C338.043 142.036 340.406 139.948 343.521 139.948C346.636 139.948 348.999 142.036 348.999 144.43Z" fill="#E3333A" stroke="#4F050F"/>
<path d="M342.103 149.029C342.103 151.422 339.739 153.511 336.624 153.511C333.51 153.511 331.146 151.422 331.146 149.029C331.146 146.635 333.51 144.547 336.624 144.547C339.739 144.547 342.103 146.635 342.103 149.029Z" fill="#E3333A" stroke="#4F050F"/>
<path d="M331.755 151.328C331.755 153.722 329.392 155.81 326.277 155.81C323.163 155.81 320.799 153.722 320.799 151.328C320.799 148.934 323.163 146.846 326.277 146.846C329.392 146.846 331.755 148.934 331.755 151.328Z" fill="#E3333A" stroke="#4F050F"/>
<path d="M322.558 151.328C322.558 153.722 320.194 155.81 317.08 155.81C313.965 155.81 311.601 153.722 311.601 151.328C311.601 148.934 313.965 146.846 317.08 146.846C320.194 146.846 322.558 148.934 322.558 151.328Z" fill="#E3333A" stroke="#4F050F"/>
<path d="M314.511 147.88C314.511 150.273 312.148 152.361 309.033 152.361C305.918 152.361 303.555 150.273 303.555 147.88C303.555 145.486 305.918 143.398 309.033 143.398C312.148 143.398 314.511 145.486 314.511 147.88Z" fill="#E3333A" stroke="#4F050F"/>
<path d="M312.21 142.131C312.21 144.525 309.847 146.613 306.732 146.613C303.617 146.613 301.254 144.525 301.254 142.131C301.254 139.737 303.617 137.649 306.732 137.649C309.847 137.649 312.21 139.737 312.21 142.131Z" fill="#E3333A" stroke="#4F050F"/>
<path d="M324.858 144.43C324.858 146.824 322.494 148.912 319.379 148.912C316.265 148.912 313.901 146.824 313.901 144.43C313.901 142.036 316.265 139.948 319.379 139.948C322.494 139.948 324.858 142.036 324.858 144.43Z" fill="#E3333A" stroke="#4F050F"/>
<path d="M320.259 137.532C320.259 139.925 317.896 142.013 314.781 142.013C311.666 142.013 309.303 139.925 309.303 137.532C309.303 135.138 311.666 133.05 314.781 133.05C317.896 133.05 320.259 135.138 320.259 137.532Z" fill="#E3333A" stroke="#4F050F"/>
<path d="M332.445 137.149C332.445 140.004 329.884 142.397 326.622 142.397C323.36 142.397 320.799 140.004 320.799 137.149C320.799 134.294 323.36 131.901 326.622 131.901C329.884 131.901 332.445 134.294 332.445 137.149Z" fill="#E3333A" stroke="#4F050F"/>
</g>
<g filter="url(#filter10_d_1_30)">
<ellipse cx="393.241" cy="160.963" rx="40.8854" ry="31.2653" fill="#E3333A"/>
<path d="M365.084 153.748C365.084 156.711 362.167 159.26 358.369 159.26C354.571 159.26 351.654 156.711 351.654 153.748C351.654 150.785 354.571 148.235 358.369 148.235C362.167 148.235 365.084 150.785 365.084 153.748Z" fill="#E3333A" stroke="#4F050F"/>
<path d="M371.097 144.128C371.097 147.091 368.18 149.641 364.382 149.641C360.584 149.641 357.667 147.091 357.667 144.128C357.667 141.165 360.584 138.616 364.382 138.616C368.18 138.616 371.097 141.165 371.097 144.128Z" fill="#E3333A" stroke="#4F050F"/>
<path d="M380.716 138.115C380.716 141.078 377.799 143.627 374.001 143.627C370.203 143.627 367.286 141.078 367.286 138.115C367.286 135.152 370.203 132.602 374.001 132.602C377.799 132.602 380.716 135.152 380.716 138.115Z" fill="#E3333A" stroke="#4F050F"/>
<path d="M402.36 129.698C402.36 132.661 399.442 135.211 395.645 135.211C391.847 135.211 388.93 132.661 388.93 129.698C388.93 126.735 391.847 124.185 395.645 124.185C399.442 124.185 402.36 126.735 402.36 129.698Z" fill="#E3333A" stroke="#4F050F"/>
<path d="M389.132 130.9C389.132 133.863 386.215 136.412 382.417 136.412C378.619 136.412 375.702 133.863 375.702 130.9C375.702 127.937 378.619 125.387 382.417 125.387C386.215 125.387 389.132 127.937 389.132 130.9Z" fill="#E3333A" stroke="#4F050F"/>
<path d="M396.348 134.508C396.348 137.471 393.431 140.02 389.633 140.02C385.835 140.02 382.918 137.471 382.918 134.508C382.918 131.545 385.835 128.995 389.633 128.995C393.431 128.995 396.348 131.545 396.348 134.508Z" fill="#E3333A" stroke="#4F050F"/>
<path d="M413.182 134.508C413.182 137.471 410.265 140.02 406.467 140.02C402.669 140.02 399.752 137.471 399.752 134.508C399.752 131.545 402.669 128.995 406.467 128.995C410.265 128.995 413.182 131.545 413.182 134.508Z" fill="#E3333A" stroke="#4F050F"/>
<path d="M424.006 140.52C424.006 143.483 421.089 146.033 417.291 146.033C413.493 146.033 410.576 143.483 410.576 140.52C410.576 137.557 413.493 135.008 417.291 135.008C421.089 135.008 424.006 137.557 424.006 140.52Z" fill="#E3333A" stroke="#4F050F"/>
<path d="M431.222 150.14C431.222 153.103 428.305 155.652 424.507 155.652C420.709 155.652 417.792 153.103 417.792 150.14C417.792 147.177 420.709 144.627 424.507 144.627C428.305 144.627 431.222 147.177 431.222 150.14Z" fill="#E3333A" stroke="#4F050F"/>
<path d="M436.03 160.963C436.03 163.926 433.113 166.475 429.315 166.475C425.517 166.475 422.6 163.926 422.6 160.963C422.6 158 425.517 155.45 429.315 155.45C433.113 155.45 436.03 158 436.03 160.963Z" fill="#E3333A" stroke="#4F050F"/>
<path d="M433.625 170.583C433.625 173.546 430.708 176.096 426.91 176.096C423.112 176.096 420.195 173.546 420.195 170.583C420.195 167.62 423.112 165.071 426.91 165.071C430.708 165.071 433.625 167.62 433.625 170.583Z" fill="#E3333A" stroke="#4F050F"/>
<path d="M421.601 150.14C421.601 153.103 418.684 155.652 414.886 155.652C411.088 155.652 408.171 153.103 408.171 150.14C408.171 147.177 411.088 144.627 414.886 144.627C418.684 144.627 421.601 147.177 421.601 150.14Z" fill="#E3333A" stroke="#4F050F"/>
<path d="M411.981 144.128C411.981 147.091 409.064 149.641 405.266 149.641C401.468 149.641 398.551 147.091 398.551 144.128C398.551 141.165 401.468 138.616 405.266 138.616C409.064 138.616 411.981 141.165 411.981 144.128Z" fill="#E3333A" stroke="#4F050F"/>
<path d="M399.955 142.926C399.955 145.889 397.038 148.438 393.24 148.438C389.442 148.438 386.525 145.889 386.525 142.926C386.525 139.963 389.442 137.413 393.24 137.413C397.038 137.413 399.955 139.963 399.955 142.926Z" fill="#E3333A" stroke="#4F050F"/>
<path d="M395.793 157.447C395.793 160.41 392.875 162.96 389.078 162.96C385.28 162.96 382.363 160.41 382.363 157.447C382.363 154.484 385.28 151.935 389.078 151.935C392.875 151.935 395.793 154.484 395.793 157.447Z" fill="#E3333A" stroke="#4F050F"/>
<path d="M408.281 157.447C408.281 160.41 405.364 162.96 401.566 162.96C397.768 162.96 394.851 160.41 394.851 157.447C394.851 154.484 397.768 151.935 401.566 151.935C405.364 151.935 408.281 154.484 408.281 157.447Z" fill="#E3333A" stroke="#4F050F"/>
<path d="M415.22 167.16C415.22 170.123 412.303 172.673 408.505 172.673C404.707 172.673 401.79 170.123 401.79 167.16C401.79 164.197 404.707 161.648 408.505 161.648C412.303 161.648 415.22 164.197 415.22 167.16Z" fill="#E3333A" stroke="#4F050F"/>
<path d="M408.281 174.098C408.281 177.061 405.364 179.611 401.566 179.611C397.768 179.611 394.851 177.061 394.851 174.098C394.851 171.135 397.768 168.585 401.566 168.585C405.364 168.585 408.281 171.135 408.281 174.098Z" fill="#E3333A" stroke="#4F050F"/>
<path d="M394.406 174.098C394.406 177.061 391.489 179.611 387.691 179.611C383.893 179.611 380.976 177.061 380.976 174.098C380.976 171.135 383.893 168.585 387.691 168.585C391.489 168.585 394.406 171.135 394.406 174.098Z" fill="#E3333A" stroke="#4F050F"/>
<path d="M388.856 167.16C388.856 170.123 385.938 172.673 382.141 172.673C378.343 172.673 375.426 170.123 375.426 167.16C375.426 164.197 378.343 161.648 382.141 161.648C385.938 161.648 388.856 164.197 388.856 167.16Z" fill="#E3333A" stroke="#4F050F"/>
<path d="M387.929 145.329C387.929 148.292 385.012 150.842 381.214 150.842C377.416 150.842 374.499 148.292 374.499 145.329C374.499 142.366 377.416 139.817 381.214 139.817C385.012 139.817 387.929 142.366 387.929 145.329Z" fill="#E3333A" stroke="#4F050F"/>
<path d="M379.514 151.343C379.514 154.306 376.597 156.855 372.799 156.855C369.001 156.855 366.084 154.306 366.084 151.343C366.084 148.38 369.001 145.83 372.799 145.83C376.597 145.83 379.514 148.38 379.514 151.343Z" fill="#E3333A" stroke="#4F050F"/>
<path d="M373.502 160.963C373.502 163.926 370.584 166.475 366.787 166.475C362.989 166.475 360.072 163.926 360.072 160.963C360.072 158 362.989 155.45 366.787 155.45C370.584 155.45 373.502 158 373.502 160.963Z" fill="#E3333A" stroke="#4F050F"/>
<path d="M428.816 160.963C428.816 163.926 425.899 166.475 422.101 166.475C418.303 166.475 415.386 163.926 415.386 160.963C415.386 158 418.303 155.45 422.101 155.45C425.899 155.45 428.816 158 428.816 160.963Z" fill="#E3333A" stroke="#4F050F"/>
<path d="M363.881 165.773C363.881 168.736 360.963 171.285 357.166 171.285C353.368 171.285 350.45 168.736 350.45 165.773C350.45 162.81 353.368 160.26 357.166 160.26C360.963 160.26 363.881 162.81 363.881 165.773Z" fill="#E3333A" stroke="#4F050F"/>
<path d="M369.894 172.987C369.894 175.95 366.976 178.5 363.178 178.5C359.381 178.5 356.463 175.95 356.463 172.987C356.463 170.024 359.381 167.475 363.178 167.475C366.976 167.475 369.894 170.024 369.894 172.987Z" fill="#E3333A" stroke="#4F050F"/>
<path d="M372.298 176.595C372.298 179.558 369.381 182.107 365.583 182.107C361.785 182.107 358.868 179.558 358.868 176.595C358.868 173.632 361.785 171.082 365.583 171.082C369.381 171.082 372.298 173.632 372.298 176.595Z" fill="#E3333A" stroke="#4F050F"/>
<path d="M380.716 185.013C380.716 187.976 377.799 190.526 374.001 190.526C370.203 190.526 367.286 187.976 367.286 185.013C367.286 182.05 370.203 179.5 374.001 179.5C377.799 179.5 380.716 182.05 380.716 185.013Z" fill="#E3333A" stroke="#4F050F"/>
<path d="M391.537 188.62C391.537 191.583 388.62 194.132 384.822 194.132C381.024 194.132 378.107 191.583 378.107 188.62C378.107 185.657 381.024 183.107 384.822 183.107C388.62 183.107 391.537 185.657 391.537 188.62Z" fill="#E3333A" stroke="#4F050F"/>
<path d="M404.766 189.823C404.766 192.786 401.849 195.335 398.051 195.335C394.253 195.335 391.336 192.786 391.336 189.823C391.336 186.86 394.253 184.31 398.051 184.31C401.849 184.31 404.766 186.86 404.766 189.823Z" fill="#E3333A" stroke="#4F050F"/>
<path d="M416.793 187.418C416.793 190.381 413.876 192.931 410.078 192.931C406.28 192.931 403.363 190.381 403.363 187.418C403.363 184.455 406.28 181.906 410.078 181.906C413.876 181.906 416.793 184.455 416.793 187.418Z" fill="#E3333A" stroke="#4F050F"/>
<path d="M427.615 180.203C427.615 183.166 424.698 185.716 420.9 185.716C417.102 185.716 414.185 183.166 414.185 180.203C414.185 177.24 417.102 174.691 420.9 174.691C424.698 174.691 427.615 177.24 427.615 180.203Z" fill="#E3333A" stroke="#4F050F"/>
<path d="M391.632 149.124C391.632 152.087 388.714 154.636 384.916 154.636C381.119 154.636 378.201 152.087 378.201 149.124C378.201 146.161 381.119 143.611 384.916 143.611C388.714 143.611 391.632 146.161 391.632 149.124Z" fill="#E3333A" stroke="#4F050F"/>
<path d="M384.693 158.835C384.693 161.798 381.776 164.347 377.978 164.347C374.18 164.347 371.263 161.798 371.263 158.835C371.263 155.872 374.18 153.322 377.978 153.322C381.776 153.322 384.693 155.872 384.693 158.835Z" fill="#E3333A" stroke="#4F050F"/>
<path d="M404.118 150.51C404.118 153.473 401.201 156.023 397.403 156.023C393.606 156.023 390.688 153.473 390.688 150.51C390.688 147.547 393.606 144.998 397.403 144.998C401.201 144.998 404.118 147.547 404.118 150.51Z" fill="#E3333A" stroke="#4F050F"/>
<path d="M417.993 151.897C417.993 154.86 415.076 157.41 411.278 157.41C407.48 157.41 404.563 154.86 404.563 151.897C404.563 148.934 407.48 146.384 411.278 146.384C415.076 146.384 417.993 148.934 417.993 151.897Z" fill="#E3333A" stroke="#4F050F"/>
<path d="M420.77 161.61C420.77 164.573 417.853 167.123 414.055 167.123C410.257 167.123 407.34 164.573 407.34 161.61C407.34 158.647 410.257 156.098 414.055 156.098C417.853 156.098 420.77 158.647 420.77 161.61Z" fill="#E3333A" stroke="#4F050F"/>
<path d="M415.22 162.998C415.22 165.961 412.303 168.51 408.505 168.51C404.707 168.51 401.79 165.961 401.79 162.998C401.79 160.035 404.707 157.485 408.505 157.485C412.303 157.485 415.22 160.035 415.22 162.998Z" fill="#E3333A" stroke="#4F050F"/>
<path d="M412.443 172.71C412.443 175.673 409.526 178.223 405.728 178.223C401.93 178.223 399.013 175.673 399.013 172.71C399.013 169.747 401.93 167.198 405.728 167.198C409.526 167.198 412.443 169.747 412.443 172.71Z" fill="#E3333A" stroke="#4F050F"/>
<path d="M404.118 176.872C404.118 179.835 401.201 182.385 397.403 182.385C393.606 182.385 390.688 179.835 390.688 176.872C390.688 173.909 393.606 171.36 397.403 171.36C401.201 171.36 404.118 173.909 404.118 176.872Z" fill="#E3333A" stroke="#4F050F"/>
<path d="M406.894 154.673C406.894 157.636 403.977 160.185 400.179 160.185C396.381 160.185 393.464 157.636 393.464 154.673C393.464 151.71 396.381 149.16 400.179 149.16C403.977 149.16 406.894 151.71 406.894 154.673Z" fill="#E3333A" stroke="#4F050F"/>
<path d="M395.793 156.06C395.793 159.023 392.875 161.572 389.078 161.572C385.28 161.572 382.363 159.023 382.363 156.06C382.363 153.097 385.28 150.547 389.078 150.547C392.875 150.547 395.793 153.097 395.793 156.06Z" fill="#E3333A" stroke="#4F050F"/>
<path d="M423.543 174.098C423.543 177.061 420.626 179.611 416.828 179.611C413.03 179.611 410.113 177.061 410.113 174.098C410.113 171.135 413.03 168.585 416.828 168.585C420.626 168.585 423.543 171.135 423.543 174.098Z" fill="#E3333A" stroke="#4F050F"/>
<path d="M415.22 179.648C415.22 182.611 412.303 185.161 408.505 185.161C404.707 185.161 401.79 182.611 401.79 179.648C401.79 176.685 404.707 174.135 408.505 174.135C412.303 174.135 415.22 176.685 415.22 179.648Z" fill="#E3333A" stroke="#4F050F"/>
<path d="M402.732 182.423C402.732 185.386 399.815 187.936 396.017 187.936C392.219 187.936 389.302 185.386 389.302 182.423C389.302 179.46 392.219 176.911 396.017 176.911C399.815 176.911 402.732 179.46 402.732 182.423Z" fill="#E3333A" stroke="#4F050F"/>
<path d="M391.632 182.423C391.632 185.386 388.714 187.936 384.916 187.936C381.119 187.936 378.201 185.386 378.201 182.423C378.201 179.46 381.119 176.911 384.916 176.911C388.714 176.911 391.632 179.46 391.632 182.423Z" fill="#E3333A" stroke="#4F050F"/>
<path d="M381.919 178.261C381.919 181.224 379.002 183.774 375.204 183.774C371.406 183.774 368.489 181.224 368.489 178.261C368.489 175.298 371.406 172.748 375.204 172.748C379.002 172.748 381.919 175.298 381.919 178.261Z" fill="#E3333A" stroke="#4F050F"/>
<path d="M379.143 171.324C379.143 174.287 376.226 176.836 372.428 176.836C368.63 176.836 365.713 174.287 365.713 171.324C365.713 168.361 368.63 165.811 372.428 165.811C376.226 165.811 379.143 168.361 379.143 171.324Z" fill="#E3333A" stroke="#4F050F"/>
<path d="M394.406 174.098C394.406 177.061 391.489 179.611 387.691 179.611C383.893 179.611 380.976 177.061 380.976 174.098C380.976 171.135 383.893 168.585 387.691 168.585C391.489 168.585 394.406 171.135 394.406 174.098Z" fill="#E3333A" stroke="#4F050F"/>
<path d="M388.856 165.773C388.856 168.736 385.938 171.285 382.141 171.285C378.343 171.285 375.426 168.736 375.426 165.773C375.426 162.81 378.343 160.26 382.141 160.26C385.938 160.26 388.856 162.81 388.856 165.773Z" fill="#E3333A" stroke="#4F050F"/>
<path d="M403.564 165.31C403.564 168.822 400.418 171.748 396.433 171.748C392.449 171.748 389.302 168.822 389.302 165.31C389.302 161.799 392.449 158.873 396.433 158.873C400.418 158.873 403.564 161.799 403.564 165.31Z" fill="#E3333A" stroke="#4F050F"/>
</g>
<g filter="url(#filter11_d_1_30)">
<ellipse cx="522.114" cy="573.548" rx="35.2774" ry="29.5326" transform="rotate(-56.3009 522.114 573.548)" fill="#E3333A"/>
<ellipse cx="530.802" cy="578.719" rx="22.3078" ry="17.1636" transform="rotate(-56.3009 530.802 578.719)" fill="#4F050F"/>
<path d="M502.927 590.036C505.271 591.6 505.838 595.006 504.059 597.673C502.28 600.341 498.918 601.127 496.573 599.563C494.229 597.999 493.662 594.594 495.441 591.926C497.22 589.259 500.582 588.473 502.927 590.036Z" fill="#E3333A" stroke="#4F050F"/>
<path d="M498.245 580.679C500.59 582.243 501.156 585.649 499.378 588.316C497.599 590.984 494.237 591.77 491.892 590.206C489.547 588.642 488.981 585.236 490.759 582.569C492.538 579.901 495.9 579.116 498.245 580.679Z" fill="#E3333A" stroke="#4F050F"/>
<path d="M498.126 570.623C500.47 572.186 501.037 575.592 499.258 578.26C497.479 580.927 494.117 581.713 491.772 580.149C489.428 578.586 488.861 575.18 490.64 572.512C492.419 569.845 495.781 569.059 498.126 570.623Z" fill="#E3333A" stroke="#4F050F"/>
<path d="M501.872 550.674C504.217 552.237 504.784 555.643 503.005 558.311C501.226 560.978 497.864 561.764 495.519 560.2C493.174 558.637 492.608 555.231 494.387 552.563C496.165 549.896 499.527 549.11 501.872 550.674Z" fill="#E3333A" stroke="#4F050F"/>
<path d="M496.484 560.798C498.829 562.362 499.396 565.768 497.617 568.435C495.838 571.103 492.476 571.888 490.131 570.325C487.786 568.761 487.22 565.355 488.999 562.688C490.778 560.02 494.14 559.234 496.484 560.798Z" fill="#E3333A" stroke="#4F050F"/>
<path d="M502.774 557.51C505.119 559.074 505.685 562.48 503.907 565.147C502.128 567.815 498.766 568.601 496.421 567.037C494.076 565.473 493.51 562.067 495.288 559.4C497.067 556.732 500.429 555.947 502.774 557.51Z" fill="#E3333A" stroke="#4F050F"/>
<path d="M510.833 545.425C513.178 546.989 513.745 550.395 511.966 553.062C510.187 555.73 506.825 556.516 504.48 554.952C502.135 553.388 501.569 549.982 503.348 547.315C505.127 544.647 508.489 543.862 510.833 545.425Z" fill="#E3333A" stroke="#4F050F"/>
<path d="M520.739 540.808C523.084 542.372 523.651 545.778 521.872 548.445C520.093 551.113 516.731 551.898 514.386 550.335C512.041 548.771 511.475 545.365 513.254 542.698C515.033 540.03 518.395 539.244 520.739 540.808Z" fill="#E3333A" stroke="#4F050F"/>
<path d="M531.753 540.67C534.098 542.234 534.664 545.639 532.885 548.307C531.106 550.974 527.744 551.76 525.4 550.197C523.055 548.633 522.488 545.227 524.267 542.56C526.046 539.892 529.408 539.106 531.753 540.67Z" fill="#E3333A" stroke="#4F050F"/>
<path d="M542.561 542.888C544.906 544.452 545.472 547.858 543.693 550.525C541.914 553.193 538.552 553.979 536.208 552.415C533.863 550.851 533.296 547.446 535.075 544.778C536.854 542.111 540.216 541.325 542.561 542.888Z" fill="#E3333A" stroke="#4F050F"/>
<path d="M548.97 549.657C551.315 551.221 551.881 554.627 550.102 557.294C548.323 559.962 544.961 560.748 542.617 559.184C540.272 557.62 539.705 554.214 541.484 551.547C543.263 548.879 546.625 548.094 548.97 549.657Z" fill="#E3333A" stroke="#4F050F"/>
<path d="M527.147 547.576C529.492 549.14 530.058 552.545 528.279 555.213C526.5 557.88 523.138 558.666 520.794 557.103C518.449 555.539 517.882 552.133 519.661 549.466C521.44 546.798 524.802 546.012 527.147 547.576Z" fill="#E3333A" stroke="#4F050F"/>
<path d="M530.52 552.305C532.865 553.868 533.431 557.274 531.653 559.942C529.874 562.609 526.512 563.395 524.167 561.831C521.822 560.268 521.256 556.862 523.034 554.194C524.813 551.527 528.175 550.741 530.52 552.305Z" fill="#E3333A" stroke="#4F050F"/>
<path d="M517.818 551.33C520.162 552.894 520.729 556.3 518.95 558.967C517.171 561.635 513.809 562.421 511.464 560.857C509.12 559.293 508.553 555.887 510.332 553.22C512.111 550.552 515.473 549.767 517.818 551.33Z" fill="#E3333A" stroke="#4F050F"/>
<path d="M522.948 555.676C525.292 557.24 525.859 560.646 524.08 563.313C522.301 565.981 518.939 566.767 516.594 565.203C514.25 563.639 513.683 560.233 515.462 557.566C517.241 554.899 520.603 554.113 522.948 555.676Z" fill="#E3333A" stroke="#4F050F"/>
<path d="M511.117 559.333C513.461 560.896 514.028 564.302 512.249 566.97C510.47 569.637 507.108 570.423 504.763 568.859C502.419 567.296 501.852 563.89 503.631 561.222C505.41 558.555 508.772 557.769 511.117 559.333Z" fill="#E3333A" stroke="#4F050F"/>
<path d="M517.06 562.833C519.405 564.397 519.972 567.803 518.193 570.47C516.414 573.138 513.052 573.924 510.707 572.36C508.362 570.796 507.796 567.39 509.575 564.723C511.354 562.055 514.716 561.27 517.06 562.833Z" fill="#E3333A" stroke="#4F050F"/>
<path d="M507.249 569.225C509.593 570.788 510.16 574.194 508.381 576.862C506.602 579.529 503.24 580.315 500.895 578.751C498.551 577.188 497.984 573.782 499.763 571.114C501.542 568.447 504.904 567.661 507.249 569.225Z" fill="#E3333A" stroke="#4F050F"/>
<path d="M515.214 570.914C517.558 572.478 518.125 575.883 516.346 578.551C514.567 581.218 511.205 582.004 508.86 580.441C506.516 578.877 505.949 575.471 507.728 572.804C509.507 570.136 512.869 569.35 515.214 570.914Z" fill="#E3333A" stroke="#4F050F"/>
<path d="M507.944 578.418C510.289 579.982 510.856 583.387 509.077 586.055C507.298 588.722 503.936 589.508 501.591 587.945C499.246 586.381 498.68 582.975 500.459 580.308C502.238 577.64 505.6 576.854 507.944 578.418Z" fill="#E3333A" stroke="#4F050F"/>
<path d="M512.062 579.122C514.407 580.686 514.974 584.091 513.195 586.759C511.416 589.426 508.054 590.212 505.709 588.649C503.364 587.085 502.798 583.679 504.577 581.012C506.356 578.344 509.718 577.558 512.062 579.122Z" fill="#E3333A" stroke="#4F050F"/>
<path d="M512.626 587.776C514.971 589.34 515.537 592.746 513.758 595.413C511.979 598.081 508.617 598.866 506.273 597.303C503.928 595.739 503.361 592.333 505.14 589.666C506.919 586.998 510.281 586.212 512.626 587.776Z" fill="#E3333A" stroke="#4F050F"/>
<path d="M539.107 548.068C541.451 549.632 542.018 553.038 540.239 555.705C538.46 558.373 535.098 559.159 532.753 557.595C530.409 556.031 529.842 552.625 531.621 549.958C533.4 547.29 536.762 546.504 539.107 548.068Z" fill="#E3333A" stroke="#4F050F"/>
<path d="M511.801 597.203C514.145 598.767 514.712 602.173 512.933 604.84C511.154 607.508 507.792 608.294 505.447 606.73C503.103 605.166 502.536 601.76 504.315 599.093C506.094 596.425 509.456 595.64 511.801 597.203Z" fill="#E3333A" stroke="#4F050F"/>
<path d="M520.35 596.668C522.694 598.231 523.261 601.637 521.482 604.305C519.703 606.972 516.341 607.758 513.996 606.194C511.652 604.631 511.085 601.225 512.864 598.557C514.643 595.89 518.005 595.104 520.35 596.668Z" fill="#E3333A" stroke="#4F050F"/>
<path d="M524.335 596.832C526.68 598.396 527.246 601.802 525.467 604.469C523.688 607.137 520.326 607.922 517.982 606.359C515.637 604.795 515.07 601.389 516.849 598.722C518.628 596.054 521.99 595.268 524.335 596.832Z" fill="#E3333A" stroke="#4F050F"/>
<path d="M534.98 595.2C537.325 596.764 537.892 600.17 536.113 602.837C534.334 605.505 530.972 606.291 528.627 604.727C526.282 603.164 525.716 599.758 527.495 597.09C529.274 594.423 532.636 593.637 534.98 595.2Z" fill="#E3333A" stroke="#4F050F"/>
<path d="M542.996 589.323C545.341 590.886 545.908 594.292 544.129 596.96C542.35 599.627 538.988 600.413 536.643 598.849C534.298 597.286 533.732 593.88 535.511 591.212C537.29 588.545 540.652 587.759 542.996 589.323Z" fill="#E3333A" stroke="#4F050F"/>
<path d="M550.274 580.458C552.618 582.021 553.185 585.427 551.406 588.095C549.627 590.762 546.265 591.548 543.921 589.984C541.576 588.421 541.009 585.015 542.788 582.347C544.567 579.68 547.929 578.894 550.274 580.458Z" fill="#E3333A" stroke="#4F050F"/>
<path d="M554.141 570.564C556.485 572.128 557.052 575.534 555.273 578.201C553.494 580.869 550.132 581.655 547.787 580.091C545.443 578.527 544.876 575.122 546.655 572.454C548.434 569.787 551.796 569.001 554.141 570.564Z" fill="#E3333A" stroke="#4F050F"/>
<path d="M553.652 559.014C555.997 560.578 556.563 563.984 554.784 566.651C553.005 569.319 549.643 570.105 547.299 568.541C544.954 566.977 544.387 563.572 546.166 560.904C547.945 558.237 551.307 557.451 553.652 559.014Z" fill="#E3333A" stroke="#4F050F"/>
</g>
<g filter="url(#filter12_di_1_30)">
<path d="M553.974 591.772C555.42 601.05 512.079 618.478 477.846 622.81C443.613 627.142 415.611 611.02 415.611 607.462C414.955 602.5 451.654 582.186 475.9 584.808C523.083 591.772 544.708 599.225 553.974 591.772Z" fill="#84BD18"/>
<rect width="26.7552" height="3.5245" rx="1.76225" transform="matrix(0.999089 -0.0426775 0.0525565 0.998618 549.901 589.388)" fill="#84BD18"/>
</g>
<g filter="url(#filter13_di_1_30)">
<path d="M566.576 591.072C571.467 601.039 627.668 580.755 654.896 570.976C684.802 561.543 712.345 519.012 717.18 503.933C719.48 501.026 653.536 516.194 637.475 531.382C597.884 553.734 580.605 592.007 566.576 591.072Z" fill="#84BD18"/>
<rect width="31.635" height="4.16733" rx="2.08366" transform="matrix(-0.842913 0.53805 0.529687 0.848193 568.678 584.048)" fill="#84BD18"/>
</g>
<ellipse cx="611.413" cy="542.023" rx="26.1838" ry="28.7553" transform="rotate(-59.2065 611.413 542.023)" fill="#E3333A"/>
<ellipse cx="617.312" cy="545.09" rx="16.5574" ry="19.9075" transform="rotate(-59.2065 617.312 545.09)" fill="#4F050F"/>
<path d="M596.391 554.271C598.852 555.738 599.726 558.5 598.602 560.385C597.478 562.271 594.633 562.817 592.171 561.35C589.71 559.883 588.836 557.121 589.96 555.235C591.084 553.35 593.929 552.804 596.391 554.271Z" fill="#E3333A" stroke="#4F050F"/>
<path d="M590.762 546.434C593.224 547.901 594.097 550.663 592.973 552.549C591.849 554.435 589.005 554.981 586.543 553.513C584.081 552.046 583.208 549.285 584.332 547.399C585.456 545.513 588.3 544.967 590.762 546.434Z" fill="#E3333A" stroke="#4F050F"/>
<path d="M589.165 538.31C591.626 539.777 592.5 542.539 591.376 544.425C590.252 546.311 587.407 546.857 584.946 545.389C582.484 543.922 581.61 541.161 582.734 539.275C583.858 537.389 586.703 536.843 589.165 538.31Z" fill="#E3333A" stroke="#4F050F"/>
<path d="M589.611 522.439C592.073 523.906 592.946 526.667 591.822 528.553C590.698 530.439 587.854 530.985 585.392 529.518C582.93 528.051 582.057 525.289 583.181 523.403C584.305 521.517 587.149 520.971 589.611 522.439Z" fill="#E3333A" stroke="#4F050F"/>
<path d="M586.224 530.282C588.685 531.749 589.559 534.511 588.435 536.397C587.311 538.283 584.466 538.829 582.005 537.362C579.543 535.895 578.669 533.133 579.793 531.247C580.917 529.361 583.762 528.815 586.224 530.282Z" fill="#E3333A" stroke="#4F050F"/>
<path d="M591.441 528.012C593.903 529.479 594.776 532.241 593.652 534.127C592.528 536.013 589.684 536.559 587.222 535.091C584.76 533.624 583.887 530.863 585.011 528.977C586.135 527.091 588.979 526.545 591.441 528.012Z" fill="#E3333A" stroke="#4F050F"/>
<path d="M596.959 518.75C599.421 520.217 600.294 522.978 599.17 524.864C598.046 526.75 595.201 527.296 592.74 525.829C590.278 524.362 589.405 521.6 590.529 519.714C591.653 517.828 594.497 517.282 596.959 518.75Z" fill="#E3333A" stroke="#4F050F"/>
<path d="M605.258 515.628C607.719 517.095 608.593 519.857 607.469 521.742C606.345 523.628 603.5 524.174 601.038 522.707C598.577 521.24 597.703 518.478 598.827 516.592C599.951 514.706 602.796 514.161 605.258 515.628Z" fill="#E3333A" stroke="#4F050F"/>
<path d="M615.223 516.187C617.685 517.655 618.558 520.416 617.434 522.302C616.31 524.188 613.466 524.734 611.004 523.267C608.542 521.8 607.669 519.038 608.793 517.152C609.917 515.266 612.762 514.72 615.223 516.187Z" fill="#E3333A" stroke="#4F050F"/>
<path d="M625.352 518.637C627.814 520.104 628.687 522.866 627.563 524.752C626.439 526.638 623.594 527.184 621.133 525.716C618.671 524.249 617.798 521.488 618.922 519.602C620.045 517.716 622.89 517.17 625.352 518.637Z" fill="#E3333A" stroke="#4F050F"/>
<path d="M632.164 524.49C634.625 525.957 635.499 528.719 634.375 530.605C633.251 532.491 630.406 533.037 627.944 531.57C625.483 530.103 624.609 527.341 625.733 525.455C626.857 523.569 629.702 523.023 632.164 524.49Z" fill="#E3333A" stroke="#4F050F"/>
<path d="M612.07 521.479C614.531 522.946 615.405 525.708 614.281 527.594C613.157 529.48 610.312 530.026 607.85 528.559C605.389 527.092 604.515 524.33 605.639 522.444C606.763 520.558 609.608 520.012 612.07 521.479Z" fill="#E3333A" stroke="#4F050F"/>
<path d="M604.166 523.941C606.628 525.408 607.501 528.17 606.377 530.056C605.253 531.942 602.409 532.488 599.947 531.021C597.485 529.554 596.612 526.792 597.736 524.906C598.86 523.02 601.704 522.474 604.166 523.941Z" fill="#E3333A" stroke="#4F050F"/>
<path d="M599.273 529.99C601.735 531.458 602.608 534.219 601.484 536.105C600.361 537.991 597.516 538.537 595.054 537.07C592.592 535.603 591.719 532.841 592.843 530.955C593.967 529.069 596.812 528.523 599.273 529.99Z" fill="#E3333A" stroke="#4F050F"/>
<path d="M597.231 537.738C599.693 539.205 600.566 541.967 599.442 543.853C598.318 545.739 595.474 546.285 593.012 544.818C590.55 543.351 589.677 540.589 590.801 538.703C591.925 536.817 594.769 536.271 597.231 537.738Z" fill="#E3333A" stroke="#4F050F"/>
<path d="M599.221 545.201C601.683 546.668 602.556 549.43 601.432 551.316C600.308 553.201 597.464 553.747 595.002 552.28C592.54 550.813 591.667 548.051 592.791 546.166C593.915 544.28 596.759 543.734 599.221 545.201Z" fill="#E3333A" stroke="#4F050F"/>
<path d="M604.849 553.037C607.311 554.504 608.185 557.265 607.061 559.151C605.937 561.037 603.092 561.583 600.63 560.116C598.169 558.649 597.295 555.887 598.419 554.001C599.543 552.115 602.388 551.569 604.849 553.037Z" fill="#E3333A" stroke="#4F050F"/>
<path d="M622.985 522.607C625.446 524.074 626.32 526.836 625.196 528.722C624.072 530.608 621.227 531.154 618.766 529.686C616.304 528.219 615.43 525.458 616.554 523.572C617.678 521.686 620.523 521.14 622.985 522.607Z" fill="#E3333A" stroke="#4F050F"/>
<path d="M605.497 560.595C607.959 562.062 608.833 564.824 607.709 566.71C606.585 568.596 603.74 569.141 601.278 567.674C598.817 566.207 597.943 563.445 599.067 561.56C600.191 559.674 603.036 559.128 605.497 560.595Z" fill="#E3333A" stroke="#4F050F"/>
<path d="M613.168 560.683C615.63 562.15 616.503 564.912 615.379 566.797C614.255 568.683 611.411 569.229 608.949 567.762C606.487 566.295 605.614 563.533 606.738 561.647C607.862 559.762 610.706 559.216 613.168 560.683Z" fill="#E3333A" stroke="#4F050F"/>
<path d="M616.807 561.06C619.268 562.527 620.142 565.289 619.018 567.175C617.894 569.061 615.049 569.607 612.587 568.139C610.126 566.672 609.252 563.911 610.376 562.025C611.5 560.139 614.345 559.593 616.807 561.06Z" fill="#E3333A" stroke="#4F050F"/>
<path d="M626.217 560.39C628.678 561.858 629.552 564.619 628.428 566.505C627.304 568.391 624.459 568.937 621.997 567.47C619.536 566.003 618.662 563.241 619.786 561.355C620.91 559.469 623.755 558.923 626.217 560.39Z" fill="#E3333A" stroke="#4F050F"/>
<path d="M632.614 556.137C635.076 557.604 635.95 560.366 634.826 562.251C633.702 564.137 630.857 564.683 628.395 563.216C625.934 561.749 625.06 558.987 626.184 557.101C627.308 555.216 630.153 554.67 632.614 556.137Z" fill="#E3333A" stroke="#4F050F"/>
<path d="M637.901 549.426C640.363 550.893 641.236 553.654 640.113 555.54C638.989 557.426 636.144 557.972 633.682 556.505C631.22 555.038 630.347 552.276 631.471 550.39C632.595 548.504 635.44 547.958 637.901 549.426Z" fill="#E3333A" stroke="#4F050F"/>
<path d="M639.945 541.679C642.407 543.146 643.28 545.908 642.156 547.793C641.032 549.679 638.188 550.225 635.726 548.758C633.264 547.291 632.391 544.529 633.515 542.643C634.639 540.758 637.483 540.212 639.945 541.679Z" fill="#E3333A" stroke="#4F050F"/>
<path d="M637.793 532.327C640.255 533.794 641.129 536.556 640.005 538.442C638.881 540.328 636.036 540.873 633.574 539.406C631.113 537.939 630.239 535.178 631.363 533.292C632.487 531.406 635.332 530.86 637.793 532.327Z" fill="#E3333A" stroke="#4F050F"/>
<g filter="url(#filter14_d_1_30)">
<ellipse cx="571.046" cy="584.36" rx="35.2774" ry="29.5326" fill="#E3333A"/>
<ellipse cx="571.565" cy="591.175" rx="22.3078" ry="20.4457" fill="#4F050F"/>
<path d="M546.683 577.546C546.683 580.364 544.164 582.725 540.957 582.725C537.751 582.725 535.232 580.364 535.232 577.546C535.232 574.727 537.751 572.366 540.957 572.366C544.164 572.366 546.683 574.727 546.683 577.546Z" fill="#E3333A" stroke="#4F050F"/>
<path d="M551.87 568.459C551.87 571.277 549.351 573.638 546.145 573.638C542.939 573.638 540.419 571.277 540.419 568.459C540.419 565.641 542.939 563.28 546.145 563.28C549.351 563.28 551.87 565.641 551.87 568.459Z" fill="#E3333A" stroke="#4F050F"/>
<path d="M560.171 562.779C560.171 565.598 557.652 567.959 554.446 567.959C551.24 567.959 548.72 565.598 548.72 562.779C548.72 559.961 551.24 557.6 554.446 557.6C557.652 557.6 560.171 559.961 560.171 562.779Z" fill="#E3333A" stroke="#4F050F"/>
<path d="M578.847 554.828C578.847 557.646 576.328 560.007 573.122 560.007C569.915 560.007 567.396 557.646 567.396 554.828C567.396 552.009 569.915 549.648 573.122 549.648C576.328 549.648 578.847 552.009 578.847 554.828Z" fill="#E3333A" stroke="#4F050F"/>
<path d="M567.434 555.963C567.434 558.781 564.915 561.142 561.708 561.142C558.502 561.142 555.983 558.781 555.983 555.963C555.983 553.145 558.502 550.784 561.708 550.784C564.915 550.784 567.434 553.145 567.434 555.963Z" fill="#E3333A" stroke="#4F050F"/>
<path d="M573.659 559.371C573.659 562.19 571.14 564.551 567.934 564.551C564.728 564.551 562.209 562.19 562.209 559.371C562.209 556.553 564.728 554.192 567.934 554.192C571.14 554.192 573.659 556.553 573.659 559.371Z" fill="#E3333A" stroke="#4F050F"/>
<path d="M588.185 559.371C588.185 562.19 585.666 564.551 582.459 564.551C579.253 564.551 576.734 562.19 576.734 559.371C576.734 556.553 579.253 554.192 582.459 554.192C585.666 554.192 588.185 556.553 588.185 559.371Z" fill="#E3333A" stroke="#4F050F"/>
<path d="M597.523 565.051C597.523 567.869 595.004 570.23 591.797 570.23C588.591 570.23 586.072 567.869 586.072 565.051C586.072 562.232 588.591 559.871 591.797 559.871C595.004 559.871 597.523 562.232 597.523 565.051Z" fill="#E3333A" stroke="#4F050F"/>
<path d="M603.748 574.137C603.748 576.955 601.229 579.316 598.023 579.316C594.817 579.316 592.297 576.955 592.297 574.137C592.297 571.319 594.817 568.958 598.023 568.958C601.229 568.958 603.748 571.319 603.748 574.137Z" fill="#E3333A" stroke="#4F050F"/>
<path d="M607.899 584.36C607.899 587.178 605.38 589.539 602.173 589.539C598.967 589.539 596.448 587.178 596.448 584.36C596.448 581.542 598.967 579.181 602.173 579.181C605.38 579.181 607.899 581.542 607.899 584.36Z" fill="#E3333A" stroke="#4F050F"/>
<path d="M605.824 593.448C605.824 596.266 603.304 598.627 600.098 598.627C596.892 598.627 594.373 596.266 594.373 593.448C594.373 590.629 596.892 588.268 600.098 588.268C603.304 588.268 605.824 590.629 605.824 593.448Z" fill="#E3333A" stroke="#4F050F"/>
<path d="M595.447 574.137C595.447 576.955 592.928 579.316 589.722 579.316C586.516 579.316 583.997 576.955 583.997 574.137C583.997 571.319 586.516 568.958 589.722 568.958C592.928 568.958 595.447 571.319 595.447 574.137Z" fill="#E3333A" stroke="#4F050F"/>
<path d="M587.148 568.459C587.148 571.277 584.629 573.638 581.422 573.638C578.216 573.638 575.697 571.277 575.697 568.459C575.697 565.641 578.216 563.28 581.422 563.28C584.629 563.28 587.148 565.641 587.148 568.459Z" fill="#E3333A" stroke="#4F050F"/>
<path d="M576.772 567.323C576.772 570.141 574.253 572.502 571.046 572.502C567.84 572.502 565.321 570.141 565.321 567.323C565.321 564.505 567.84 562.144 571.046 562.144C574.253 562.144 576.772 564.505 576.772 567.323Z" fill="#E3333A" stroke="#4F050F"/>
<path d="M566.396 569.594C566.396 572.412 563.877 574.773 560.67 574.773C557.464 574.773 554.945 572.412 554.945 569.594C554.945 566.776 557.464 564.414 560.67 564.414C563.877 564.414 566.396 566.776 566.396 569.594Z" fill="#E3333A" stroke="#4F050F"/>
<path d="M559.133 575.273C559.133 578.091 556.614 580.453 553.408 580.453C550.201 580.453 547.682 578.091 547.682 575.273C547.682 572.455 550.201 570.094 553.408 570.094C556.614 570.094 559.133 572.455 559.133 575.273Z" fill="#E3333A" stroke="#4F050F"/>
<path d="M553.945 584.36C553.945 587.178 551.426 589.539 548.22 589.539C545.014 589.539 542.495 587.178 542.495 584.36C542.495 581.542 545.014 579.181 548.22 579.181C551.426 579.181 553.945 581.542 553.945 584.36Z" fill="#E3333A" stroke="#4F050F"/>
<path d="M601.673 584.36C601.673 587.178 599.154 589.539 595.948 589.539C592.741 589.539 590.222 587.178 590.222 584.36C590.222 581.542 592.741 579.181 595.948 579.181C599.154 579.181 601.673 581.542 601.673 584.36Z" fill="#E3333A" stroke="#4F050F"/>
<path d="M545.645 588.904C545.645 591.722 543.126 594.083 539.919 594.083C536.713 594.083 534.194 591.722 534.194 588.904C534.194 586.086 536.713 583.725 539.919 583.725C543.126 583.725 545.645 586.086 545.645 588.904Z" fill="#E3333A" stroke="#4F050F"/>
<path d="M550.833 595.719C550.833 598.538 548.314 600.899 545.108 600.899C541.902 600.899 539.382 598.538 539.382 595.719C539.382 592.901 541.902 590.54 545.108 590.54C548.314 590.54 550.833 592.901 550.833 595.719Z" fill="#E3333A" stroke="#4F050F"/>
<path d="M552.907 599.126C552.907 601.944 550.388 604.305 547.182 604.305C543.976 604.305 541.457 601.944 541.457 599.126C541.457 596.308 543.976 593.947 547.182 593.947C550.388 593.947 552.907 596.308 552.907 599.126Z" fill="#E3333A" stroke="#4F050F"/>
<path d="M560.171 607.078C560.171 609.896 557.652 612.257 554.446 612.257C551.24 612.257 548.72 609.896 548.72 607.078C548.72 604.259 551.24 601.898 554.446 601.898C557.652 601.898 560.171 604.259 560.171 607.078Z" fill="#E3333A" stroke="#4F050F"/>
<path d="M569.509 610.485C569.509 613.304 566.99 615.665 563.784 615.665C560.577 615.665 558.058 613.304 558.058 610.485C558.058 607.667 560.577 605.306 563.784 605.306C566.99 605.306 569.509 607.667 569.509 610.485Z" fill="#E3333A" stroke="#4F050F"/>
<path d="M580.922 611.621C580.922 614.44 578.403 616.801 575.197 616.801C571.99 616.801 569.471 614.44 569.471 611.621C569.471 608.803 571.99 606.442 575.197 606.442C578.403 606.442 580.922 608.803 580.922 611.621Z" fill="#E3333A" stroke="#4F050F"/>
<path d="M591.298 609.35C591.298 612.168 588.779 614.529 585.573 614.529C582.367 614.529 579.847 612.168 579.847 609.35C579.847 606.532 582.367 604.171 585.573 604.171C588.779 604.171 591.298 606.532 591.298 609.35Z" fill="#E3333A" stroke="#4F050F"/>
<path d="M600.636 602.535C600.636 605.353 598.117 607.714 594.911 607.714C591.704 607.714 589.185 605.353 589.185 602.535C589.185 599.716 591.704 597.355 594.911 597.355C598.117 597.355 600.636 599.716 600.636 602.535Z" fill="#E3333A" stroke="#4F050F"/>
</g>
<defs>
<filter id="filter0_d_1_30" x="0" y="120" width="816" height="620" filterUnits="userSpaceOnUse" color-interpolation-filters="sRGB">
<feFlood flood-opacity="0" result="BackgroundImageFix"/>
<feColorMatrix in="SourceAlpha" type="matrix" values="0 0 0 0 0 0 0 0 0 0 0 0 0 0 0 0 0 0 127 0" result="hardAlpha"/>
<feOffset dx="16" dy="20"/>
<feGaussianBlur stdDeviation="6.5"/>
<feComposite in2="hardAlpha" operator="out"/>
<feColorMatrix type="matrix" values="0 0 0 0 0 0 0 0 0 0 0 0 0 0 0 0 0 0 0.25 0"/>
<feBlend mode="normal" in2="BackgroundImageFix" result="effect1_dropShadow_1_30"/>
<feBlend mode="normal" in="SourceGraphic" in2="effect1_dropShadow_1_30" result="shape"/>
</filter>
<filter id="filter1_di_1_30" x="79.7008" y="321.002" width="631.825" height="291.644" filterUnits="userSpaceOnUse" color-interpolation-filters="sRGB">
<feFlood flood-opacity="0" result="BackgroundImageFix"/>
<feColorMatrix in="SourceAlpha" type="matrix" values="0 0 0 0 0 0 0 0 0 0 0 0 0 0 0 0 0 0 127 0" result="hardAlpha"/>
<feOffset dy="4"/>
<feGaussianBlur stdDeviation="2"/>
<feComposite in2="hardAlpha" operator="out"/>
<feColorMatrix type="matrix" values="0 0 0 0 0 0 0 0 0 0 0 0 0 0 0 0 0 0 0.25 0"/>
<feBlend mode="normal" in2="BackgroundImageFix" result="effect1_dropShadow_1_30"/>
<feBlend mode="normal" in="SourceGraphic" in2="effect1_dropShadow_1_30" result="shape"/>
<feColorMatrix in="SourceAlpha" type="matrix" values="0 0 0 0 0 0 0 0 0 0 0 0 0 0 0 0 0 0 127 0" result="hardAlpha"/>
<feOffset dx="7" dy="-7"/>
<feGaussianBlur stdDeviation="4"/>
<feComposite in2="hardAlpha" operator="arithmetic" k2="-1" k3="1"/>
<feColorMatrix type="matrix" values="0 0 0 0 0 0 0 0 0 0 0 0 0 0 0 0 0 0 0.2 0"/>
<feBlend mode="normal" in2="shape" result="effect2_innerShadow_1_30"/>
</filter>
<filter id="filter2_di_1_30" x="85.6415" y="272.203" width="620.344" height="291.471" filterUnits="userSpaceOnUse" color-interpolation-filters="sRGB">
<feFlood flood-opacity="0" result="BackgroundImageFix"/>
<feColorMatrix in="SourceAlpha" type="matrix" values="0 0 0 0 0 0 0 0 0 0 0 0 0 0 0 0 0 0 127 0" result="hardAlpha"/>
<feOffset dy="4"/>
<feGaussianBlur stdDeviation="2"/>
<feComposite in2="hardAlpha" operator="out"/>
<feColorMatrix type="matrix" values="0 0 0 0 0 0 0 0 0 0 0 0 0 0 0 0 0 0 0.25 0"/>
<feBlend mode="normal" in2="BackgroundImageFix" result="effect1_dropShadow_1_30"/>
<feBlend mode="normal" in="SourceGraphic" in2="effect1_dropShadow_1_30" result="shape"/>
<feColorMatrix in="SourceAlpha" type="matrix" values="0 0 0 0 0 0 0 0 0 0 0 0 0 0 0 0 0 0 127 0" result="hardAlpha"/>
<feOffset dx="7" dy="-7"/>
<feGaussianBlur stdDeviation="4"/>
<feComposite in2="hardAlpha" operator="arithmetic" k2="-1" k3="1"/>
<feColorMatrix type="matrix" values="0 0 0 0 0 0 0 0 0 0 0 0 0 0 0 0 0 0 0.2 0"/>
<feBlend mode="normal" in2="shape" result="effect2_innerShadow_1_30"/>
</filter>
<filter id="filter3_di_1_30" x="79.7008" y="224.527" width="631.825" height="291.644" filterUnits="userSpaceOnUse" color-interpolation-filters="sRGB">
<feFlood flood-opacity="0" result="BackgroundImageFix"/>
<feColorMatrix in="SourceAlpha" type="matrix" values="0 0 0 0 0 0 0 0 0 0 0 0 0 0 0 0 0 0 127 0" result="hardAlpha"/>
<feOffset dy="4"/>
<feGaussianBlur stdDeviation="2"/>
<feComposite in2="hardAlpha" operator="out"/>
<feColorMatrix type="matrix" values="0 0 0 0 0 0 0 0 0 0 0 0 0 0 0 0 0 0 0.25 0"/>
<feBlend mode="normal" in2="BackgroundImageFix" result="effect1_dropShadow_1_30"/>
<feBlend mode="normal" in="SourceGraphic" in2="effect1_dropShadow_1_30" result="shape"/>
<feColorMatrix in="SourceAlpha" type="matrix" values="0 0 0 0 0 0 0 0 0 0 0 0 0 0 0 0 0 0 127 0" result="hardAlpha"/>
<feOffset dx="7" dy="-7"/>
<feGaussianBlur stdDeviation="4"/>
<feComposite in2="hardAlpha" operator="arithmetic" k2="-1" k3="1"/>
<feColorMatrix type="matrix" values="0 0 0 0 0 0 0 0 0 0 0 0 0 0 0 0 0 0 0.2 0"/>
<feBlend mode="normal" in2="shape" result="effect2_innerShadow_1_30"/>
</filter>
<filter id="filter4_di_1_30" x="85.6415" y="168.307" width="620.344" height="291.471" filterUnits="userSpaceOnUse" color-interpolation-filters="sRGB">
<feFlood flood-opacity="0" result="BackgroundImageFix"/>
<feColorMatrix in="SourceAlpha" type="matrix" values="0 0 0 0 0 0 0 0 0 0 0 0 0 0 0 0 0 0 127 0" result="hardAlpha"/>
<feOffset dy="4"/>
<feGaussianBlur stdDeviation="2"/>
<feComposite in2="hardAlpha" operator="out"/>
<feColorMatrix type="matrix" values="0 0 0 0 0 0 0 0 0 0 0 0 0 0 0 0 0 0 0.25 0"/>
<feBlend mode="normal" in2="BackgroundImageFix" result="effect1_dropShadow_1_30"/>
<feBlend mode="normal" in="SourceGraphic" in2="effect1_dropShadow_1_30" result="shape"/>
<feColorMatrix in="SourceAlpha" type="matrix" values="0 0 0 0 0 0 0 0 0 0 0 0 0 0 0 0 0 0 127 0" result="hardAlpha"/>
<feOffset dx="7" dy="-7"/>
<feGaussianBlur stdDeviation="4"/>
<feComposite in2="hardAlpha" operator="arithmetic" k2="-1" k3="1"/>
<feColorMatrix type="matrix" values="0 0 0 0 0 0 0 0 0 0 0 0 0 0 0 0 0 0 0.2 0"/>
<feBlend mode="normal" in2="shape" result="effect2_innerShadow_1_30"/>
</filter>
<filter id="filter5_di_1_30" x="79.7008" y="120.632" width="631.825" height="291.644" filterUnits="userSpaceOnUse" color-interpolation-filters="sRGB">
<feFlood flood-opacity="0" result="BackgroundImageFix"/>
<feColorMatrix in="SourceAlpha" type="matrix" values="0 0 0 0 0 0 0 0 0 0 0 0 0 0 0 0 0 0 127 0" result="hardAlpha"/>
<feOffset dy="4"/>
<feGaussianBlur stdDeviation="2"/>
<feComposite in2="hardAlpha" operator="out"/>
<feColorMatrix type="matrix" values="0 0 0 0 0 0 0 0 0 0 0 0 0 0 0 0 0 0 0.25 0"/>
<feBlend mode="normal" in2="BackgroundImageFix" result="effect1_dropShadow_1_30"/>
<feBlend mode="normal" in="SourceGraphic" in2="effect1_dropShadow_1_30" result="shape"/>
<feColorMatrix in="SourceAlpha" type="matrix" values="0 0 0 0 0 0 0 0 0 0 0 0 0 0 0 0 0 0 127 0" result="hardAlpha"/>
<feOffset dx="7" dy="-7"/>
<feGaussianBlur stdDeviation="4"/>
<feComposite in2="hardAlpha" operator="arithmetic" k2="-1" k3="1"/>
<feColorMatrix type="matrix" values="0 0 0 0 0 0 0 0 0 0 0 0 0 0 0 0 0 0 0.2 0"/>
<feBlend mode="normal" in2="shape" result="effect2_innerShadow_1_30"/>
</filter>
<filter id="filter6_di_1_30" x="85.6415" y="75.5427" width="620.344" height="291.471" filterUnits="userSpaceOnUse" color-interpolation-filters="sRGB">
<feFlood flood-opacity="0" result="BackgroundImageFix"/>
<feColorMatrix in="SourceAlpha" type="matrix" values="0 0 0 0 0 0 0 0 0 0 0 0 0 0 0 0 0 0 127 0" result="hardAlpha"/>
<feOffset dy="4"/>
<feGaussianBlur stdDeviation="2"/>
<feComposite in2="hardAlpha" operator="out"/>
<feColorMatrix type="matrix" values="0 0 0 0 0 0 0 0 0 0 0 0 0 0 0 0 0 0 0.25 0"/>
<feBlend mode="normal" in2="BackgroundImageFix" result="effect1_dropShadow_1_30"/>
<feBlend mode="normal" in="SourceGraphic" in2="effect1_dropShadow_1_30" result="shape"/>
<feColorMatrix in="SourceAlpha" type="matrix" values="0 0 0 0 0 0 0 0 0 0 0 0 0 0 0 0 0 0 127 0" result="hardAlpha"/>
<feOffset dx="7" dy="-7"/>
<feGaussianBlur stdDeviation="4"/>
<feComposite in2="hardAlpha" operator="arithmetic" k2="-1" k3="1"/>
<feColorMatrix type="matrix" values="0 0 0 0 0 0 0 0 0 0 0 0 0 0 0 0 0 0 0.2 0"/>
<feBlend mode="normal" in2="shape" result="effect2_innerShadow_1_30"/>
</filter>
<filter id="filter7_di_1_30" x="85.6415" y="26.3055" width="620.344" height="292.471" filterUnits="userSpaceOnUse" color-interpolation-filters="sRGB">
<feFlood flood-opacity="0" result="BackgroundImageFix"/>
<feColorMatrix in="SourceAlpha" type="matrix" values="0 0 0 0 0 0 0 0 0 0 0 0 0 0 0 0 0 0 127 0" result="hardAlpha"/>
<feOffset dy="4"/>
<feGaussianBlur stdDeviation="2"/>
<feComposite in2="hardAlpha" operator="out"/>
<feColorMatrix type="matrix" values="0 0 0 0 0 0 0 0 0 0 0 0 0 0 0 0 0 0 0.25 0"/>
<feBlend mode="normal" in2="BackgroundImageFix" result="effect1_dropShadow_1_30"/>
<feBlend mode="normal" in="SourceGraphic" in2="effect1_dropShadow_1_30" result="shape"/>
<feColorMatrix in="SourceAlpha" type="matrix" values="0 0 0 0 0 0 0 0 0 0 0 0 0 0 0 0 0 0 127 0" result="hardAlpha"/>
<feOffset dx="7" dy="-14"/>
<feGaussianBlur stdDeviation="4"/>
<feComposite in2="hardAlpha" operator="arithmetic" k2="-1" k3="1"/>
<feColorMatrix type="matrix" values="0 0 0 0 0 0 0 0 0 0 0 0 0 0 0 0 0 0 0.11 0"/>
<feBlend mode="normal" in2="shape" result="effect2_innerShadow_1_30"/>
</filter>
<filter id="filter8_d_1_30" x="399.136" y="82.8688" width="79.7372" height="67.7809" filterUnits="userSpaceOnUse" color-interpolation-filters="sRGB">
<feFlood flood-opacity="0" result="BackgroundImageFix"/>
<feColorMatrix in="SourceAlpha" type="matrix" values="0 0 0 0 0 0 0 0 0 0 0 0 0 0 0 0 0 0 127 0" result="hardAlpha"/>
<feOffset dy="4"/>
<feGaussianBlur stdDeviation="2"/>
<feComposite in2="hardAlpha" operator="out"/>
<feColorMatrix type="matrix" values="0 0 0 0 0 0 0 0 0 0 0 0 0 0 0 0 0 0 0.25 0"/>
<feBlend mode="normal" in2="BackgroundImageFix" result="effect1_dropShadow_1_30"/>
<feBlend mode="normal" in="SourceGraphic" in2="effect1_dropShadow_1_30" result="shape"/>
</filter>
<filter id="filter9_d_1_30" x="284.109" y="102.659" width="79.7369" height="67.782" filterUnits="userSpaceOnUse" color-interpolation-filters="sRGB">
<feFlood flood-opacity="0" result="BackgroundImageFix"/>
<feColorMatrix in="SourceAlpha" type="matrix" values="0 0 0 0 0 0 0 0 0 0 0 0 0 0 0 0 0 0 127 0" result="hardAlpha"/>
<feOffset dy="4"/>
<feGaussianBlur stdDeviation="2"/>
<feComposite in2="hardAlpha" operator="out"/>
<feColorMatrix type="matrix" values="0 0 0 0 0 0 0 0 0 0 0 0 0 0 0 0 0 0 0.25 0"/>
<feBlend mode="normal" in2="BackgroundImageFix" result="effect1_dropShadow_1_30"/>
<feBlend mode="normal" in="SourceGraphic" in2="effect1_dropShadow_1_30" result="shape"/>
</filter>
<filter id="filter10_d_1_30" x="345.95" y="123.685" width="94.5797" height="80.1499" filterUnits="userSpaceOnUse" color-interpolation-filters="sRGB">
<feFlood flood-opacity="0" result="BackgroundImageFix"/>
<feColorMatrix in="SourceAlpha" type="matrix" values="0 0 0 0 0 0 0 0 0 0 0 0 0 0 0 0 0 0 127 0" result="hardAlpha"/>
<feOffset dy="4"/>
<feGaussianBlur stdDeviation="2"/>
<feComposite in2="hardAlpha" operator="out"/>
<feColorMatrix type="matrix" values="0 0 0 0 0 0 0 0 0 0 0 0 0 0 0 0 0 0 0.25 0"/>
<feBlend mode="normal" in2="BackgroundImageFix" result="effect1_dropShadow_1_30"/>
<feBlend mode="normal" in="SourceGraphic" in2="effect1_dropShadow_1_30" result="shape"/>
</filter>
<filter id="filter11_d_1_30" x="483.454" y="539.37" width="77.3629" height="76.6603" filterUnits="userSpaceOnUse" color-interpolation-filters="sRGB">
<feFlood flood-opacity="0" result="BackgroundImageFix"/>
<feColorMatrix in="SourceAlpha" type="matrix" values="0 0 0 0 0 0 0 0 0 0 0 0 0 0 0 0 0 0 127 0" result="hardAlpha"/>
<feOffset dy="4"/>
<feGaussianBlur stdDeviation="2"/>
<feComposite in2="hardAlpha" operator="out"/>
<feColorMatrix type="matrix" values="0 0 0 0 0 0 0 0 0 0 0 0 0 0 0 0 0 0 0.25 0"/>
<feBlend mode="normal" in2="BackgroundImageFix" result="effect1_dropShadow_1_30"/>
<feBlend mode="normal" in="SourceGraphic" in2="effect1_dropShadow_1_30" result="shape"/>
</filter>
<filter id="filter12_di_1_30" x="409.602" y="583.575" width="171.125" height="47.9683" filterUnits="userSpaceOnUse" color-interpolation-filters="sRGB">
<feFlood flood-opacity="0" result="BackgroundImageFix"/>
<feColorMatrix in="SourceAlpha" type="matrix" values="0 0 0 0 0 0 0 0 0 0 0 0 0 0 0 0 0 0 127 0" result="hardAlpha"/>
<feOffset dy="4"/>
<feGaussianBlur stdDeviation="2"/>
<feComposite in2="hardAlpha" operator="out"/>
<feColorMatrix type="matrix" values="0 0 0 0 0 0 0 0 0 0 0 0 0 0 0 0 0 0 0.25 0"/>
<feBlend mode="normal" in2="BackgroundImageFix" result="effect1_dropShadow_1_30"/>
<feBlend mode="normal" in="SourceGraphic" in2="effect1_dropShadow_1_30" result="shape"/>
<feColorMatrix in="SourceAlpha" type="matrix" values="0 0 0 0 0 0 0 0 0 0 0 0 0 0 0 0 0 0 127 0" result="hardAlpha"/>
<feOffset dx="-22" dy="-1"/>
<feGaussianBlur stdDeviation="3"/>
<feComposite in2="hardAlpha" operator="arithmetic" k2="-1" k3="1"/>
<feColorMatrix type="matrix" values="0 0 0 0 0 0 0 0 0 0 0 0 0 0 0 0 0 0 0.17 0"/>
<feBlend mode="normal" in2="shape" result="effect2_innerShadow_1_30"/>
</filter>
<filter id="filter13_di_1_30" x="536.798" y="502.572" width="184.441" height="109.237" filterUnits="userSpaceOnUse" color-interpolation-filters="sRGB">
<feFlood flood-opacity="0" result="BackgroundImageFix"/>
<feColorMatrix in="SourceAlpha" type="matrix" values="0 0 0 0 0 0 0 0 0 0 0 0 0 0 0 0 0 0 127 0" result="hardAlpha"/>
<feOffset dy="4"/>
<feGaussianBlur stdDeviation="2"/>
<feComposite in2="hardAlpha" operator="out"/>
<feColorMatrix type="matrix" values="0 0 0 0 0 0 0 0 0 0 0 0 0 0 0 0 0 0 0.25 0"/>
<feBlend mode="normal" in2="BackgroundImageFix" result="effect1_dropShadow_1_30"/>
<feBlend mode="normal" in="SourceGraphic" in2="effect1_dropShadow_1_30" result="shape"/>
<feColorMatrix in="SourceAlpha" type="matrix" values="0 0 0 0 0 0 0 0 0 0 0 0 0 0 0 0 0 0 127 0" result="hardAlpha"/>
<feOffset dx="-22" dy="-1"/>
<feGaussianBlur stdDeviation="3"/>
<feComposite in2="hardAlpha" operator="arithmetic" k2="-1" k3="1"/>
<feColorMatrix type="matrix" values="0 0 0 0 0 0 0 0 0 0 0 0 0 0 0 0 0 0 0.17 0"/>
<feBlend mode="normal" in2="shape" result="effect2_innerShadow_1_30"/>
</filter>
<filter id="filter14_d_1_30" x="529.694" y="549.148" width="82.7048" height="76.1523" filterUnits="userSpaceOnUse" color-interpolation-filters="sRGB">
<feFlood flood-opacity="0" result="BackgroundImageFix"/>
<feColorMatrix in="SourceAlpha" type="matrix" values="0 0 0 0 0 0 0 0 0 0 0 0 0 0 0 0 0 0 127 0" result="hardAlpha"/>
<feOffset dy="4"/>
<feGaussianBlur stdDeviation="2"/>
<feComposite in2="hardAlpha" operator="out"/>
<feColorMatrix type="matrix" values="0 0 0 0 0 0 0 0 0 0 0 0 0 0 0 0 0 0 0.25 0"/>
<feBlend mode="normal" in2="BackgroundImageFix" result="effect1_dropShadow_1_30"/>
<feBlend mode="normal" in="SourceGraphic" in2="effect1_dropShadow_1_30" result="shape"/>
</filter>
</defs>
</svg>
