<svg width="182" height="41" viewBox="0 0 182 41" fill="none" xmlns="http://www.w3.org/2000/svg">
<g filter="url(#filter0_di_22_13)">
<path d="M17.9687 4.14195C18.2564 3.19698 19.5942 3.19698 19.8819 4.14196L22.2329 11.8634C22.3611 12.2844 22.7495 12.5721 23.1896 12.5721H30.9288C31.8818 12.5721 32.2946 13.7785 31.5416 14.3624L25.1709 19.3018C24.843 19.5561 24.7062 19.9864 24.827 20.3834L27.2336 28.2877C27.5176 29.2205 26.4349 29.9667 25.6642 29.3692L19.538 24.6194C19.1774 24.3398 18.6732 24.3398 18.3126 24.6194L12.1863 29.3692C11.4157 29.9667 10.3329 29.2205 10.617 28.2876L13.0236 20.3834C13.1445 19.9864 13.0076 19.5561 12.6797 19.3018L6.30905 14.3624C5.55597 13.7785 5.96887 12.5721 6.92179 12.5721H14.6611C15.1012 12.5721 15.4895 12.2844 15.6177 11.8634L17.9687 4.14195Z" fill="#F4BF00"/>
</g>
<g filter="url(#filter1_di_22_13)">
<path d="M54.663 4.14195C54.9507 3.19698 56.2886 3.19698 56.5763 4.14196L58.9273 11.8634C59.0554 12.2844 59.4438 12.5721 59.8839 12.5721H67.6232C68.5761 12.5721 68.989 13.7785 68.2359 14.3624L61.8653 19.3018C61.5374 19.5561 61.4005 19.9864 61.5214 20.3834L63.9279 28.2877C64.212 29.2205 63.1292 29.9667 62.3586 29.3692L56.2324 24.6194C55.8717 24.3398 55.3675 24.3398 55.0069 24.6194L48.8807 29.3692C48.11 29.9667 47.0273 29.2205 47.3113 28.2876L49.7179 20.3834C49.8388 19.9864 49.702 19.5561 49.374 19.3018L43.0034 14.3624C42.2503 13.7785 42.6632 12.5721 43.6161 12.5721H51.3554C51.7955 12.5721 52.1839 12.2844 52.312 11.8634L54.663 4.14195Z" fill="#F4BF00"/>
</g>
<g filter="url(#filter2_di_22_13)">
<path d="M91.3573 4.14195C91.6451 3.19698 92.9829 3.19698 93.2706 4.14196L95.6216 11.8634C95.7498 12.2844 96.1381 12.5721 96.5782 12.5721H104.318C105.27 12.5721 105.683 13.7785 104.93 14.3624L98.5596 19.3018C98.2317 19.5561 98.0949 19.9864 98.2157 20.3834L100.622 28.2877C100.906 29.2205 99.8235 29.9667 99.0529 29.3692L92.9267 24.6194C92.5661 24.3398 92.0619 24.3398 91.7012 24.6194L85.575 29.3692C84.8044 29.9667 83.7216 29.2205 84.0056 28.2876L86.4123 20.3834C86.5331 19.9864 86.3963 19.5561 86.0684 19.3018L79.6977 14.3624C78.9446 13.7785 79.3575 12.5721 80.3105 12.5721H88.0497C88.4898 12.5721 88.8782 12.2844 89.0064 11.8634L91.3573 4.14195Z" fill="#F4BF00"/>
</g>
<g filter="url(#filter3_di_22_13)">
<path d="M128.052 4.88072C128.34 3.93575 129.678 3.93575 129.965 4.88073L132.316 12.6022C132.445 13.0232 132.833 13.3109 133.273 13.3109H141.012C141.965 13.3109 142.378 14.5173 141.625 15.1012L135.254 20.0406C134.927 20.2948 134.79 20.7252 134.911 21.1221L137.317 29.0264C137.601 29.9593 136.518 30.7055 135.748 30.108L129.622 25.3582C129.261 25.0786 128.757 25.0786 128.396 25.3582L122.27 30.108C121.499 30.7055 120.416 29.9593 120.7 29.0264L123.107 21.1221C123.228 20.7252 123.091 20.2948 122.763 20.0406L116.393 15.1012C115.639 14.5173 116.052 13.3109 117.005 13.3109H124.745C125.185 13.3109 125.573 13.0232 125.701 12.6022L128.052 4.88072Z" fill="#F4BF00"/>
</g>
<g filter="url(#filter4_di_22_13)">
<path d="M161.969 5.14195C162.256 4.19698 163.594 4.19698 163.882 5.14196L166.233 12.8634C166.361 13.2844 166.749 13.5721 167.19 13.5721H174.929C175.882 13.5721 176.295 14.7785 175.542 15.3624L169.171 20.3018C168.843 20.5561 168.706 20.9864 168.827 21.3834L171.234 29.2877C171.518 30.2205 170.435 30.9667 169.664 30.3692L163.538 25.6194C163.177 25.3398 162.673 25.3398 162.313 25.6194L156.186 30.3692C155.416 30.9667 154.333 30.2205 154.617 29.2876L157.024 21.3834C157.144 20.9864 157.008 20.5561 156.68 20.3018L150.309 15.3624C149.556 14.7785 149.969 13.5721 150.922 13.5721H158.661C159.101 13.5721 159.49 13.2844 159.618 12.8634L161.969 5.14195Z" stroke="#FFBF1C" stroke-width="2" stroke-linecap="round" stroke-linejoin="round"/>
</g>
<defs>
<filter id="filter0_di_22_13" x="0.9198" y="2.43311" width="34.011" height="34.1504" filterUnits="userSpaceOnUse" color-interpolation-filters="sRGB">
<feFlood flood-opacity="0" result="BackgroundImageFix"/>
<feColorMatrix in="SourceAlpha" type="matrix" values="0 0 0 0 0 0 0 0 0 0 0 0 0 0 0 0 0 0 127 0" result="hardAlpha"/>
<feOffset dx="-1" dy="3"/>
<feGaussianBlur stdDeviation="2"/>
<feComposite in2="hardAlpha" operator="out"/>
<feColorMatrix type="matrix" values="0 0 0 0 0 0 0 0 0 0 0 0 0 0 0 0 0 0 0.25 0"/>
<feBlend mode="normal" in2="BackgroundImageFix" result="effect1_dropShadow_22_13"/>
<feBlend mode="normal" in="SourceGraphic" in2="effect1_dropShadow_22_13" result="shape"/>
<feColorMatrix in="SourceAlpha" type="matrix" values="0 0 0 0 0 0 0 0 0 0 0 0 0 0 0 0 0 0 127 0" result="hardAlpha"/>
<feOffset dy="5"/>
<feGaussianBlur stdDeviation="2"/>
<feComposite in2="hardAlpha" operator="arithmetic" k2="-1" k3="1"/>
<feColorMatrix type="matrix" values="0 0 0 0 1 0 0 0 0 1 0 0 0 0 1 0 0 0 0.47 0"/>
<feBlend mode="normal" in2="shape" result="effect2_innerShadow_22_13"/>
</filter>
<filter id="filter1_di_22_13" x="37.6141" y="2.43311" width="34.011" height="34.1504" filterUnits="userSpaceOnUse" color-interpolation-filters="sRGB">
<feFlood flood-opacity="0" result="BackgroundImageFix"/>
<feColorMatrix in="SourceAlpha" type="matrix" values="0 0 0 0 0 0 0 0 0 0 0 0 0 0 0 0 0 0 127 0" result="hardAlpha"/>
<feOffset dx="-1" dy="3"/>
<feGaussianBlur stdDeviation="2"/>
<feComposite in2="hardAlpha" operator="out"/>
<feColorMatrix type="matrix" values="0 0 0 0 0 0 0 0 0 0 0 0 0 0 0 0 0 0 0.25 0"/>
<feBlend mode="normal" in2="BackgroundImageFix" result="effect1_dropShadow_22_13"/>
<feBlend mode="normal" in="SourceGraphic" in2="effect1_dropShadow_22_13" result="shape"/>
<feColorMatrix in="SourceAlpha" type="matrix" values="0 0 0 0 0 0 0 0 0 0 0 0 0 0 0 0 0 0 127 0" result="hardAlpha"/>
<feOffset dy="5"/>
<feGaussianBlur stdDeviation="2"/>
<feComposite in2="hardAlpha" operator="arithmetic" k2="-1" k3="1"/>
<feColorMatrix type="matrix" values="0 0 0 0 1 0 0 0 0 1 0 0 0 0 1 0 0 0 0.47 0"/>
<feBlend mode="normal" in2="shape" result="effect2_innerShadow_22_13"/>
</filter>
<filter id="filter2_di_22_13" x="74.3085" y="2.43311" width="34.011" height="34.1504" filterUnits="userSpaceOnUse" color-interpolation-filters="sRGB">
<feFlood flood-opacity="0" result="BackgroundImageFix"/>
<feColorMatrix in="SourceAlpha" type="matrix" values="0 0 0 0 0 0 0 0 0 0 0 0 0 0 0 0 0 0 127 0" result="hardAlpha"/>
<feOffset dx="-1" dy="3"/>
<feGaussianBlur stdDeviation="2"/>
<feComposite in2="hardAlpha" operator="out"/>
<feColorMatrix type="matrix" values="0 0 0 0 0 0 0 0 0 0 0 0 0 0 0 0 0 0 0.25 0"/>
<feBlend mode="normal" in2="BackgroundImageFix" result="effect1_dropShadow_22_13"/>
<feBlend mode="normal" in="SourceGraphic" in2="effect1_dropShadow_22_13" result="shape"/>
<feColorMatrix in="SourceAlpha" type="matrix" values="0 0 0 0 0 0 0 0 0 0 0 0 0 0 0 0 0 0 127 0" result="hardAlpha"/>
<feOffset dy="5"/>
<feGaussianBlur stdDeviation="2"/>
<feComposite in2="hardAlpha" operator="arithmetic" k2="-1" k3="1"/>
<feColorMatrix type="matrix" values="0 0 0 0 1 0 0 0 0 1 0 0 0 0 1 0 0 0 0.47 0"/>
<feBlend mode="normal" in2="shape" result="effect2_innerShadow_22_13"/>
</filter>
<filter id="filter3_di_22_13" x="111.003" y="3.17188" width="34.011" height="34.1504" filterUnits="userSpaceOnUse" color-interpolation-filters="sRGB">
<feFlood flood-opacity="0" result="BackgroundImageFix"/>
<feColorMatrix in="SourceAlpha" type="matrix" values="0 0 0 0 0 0 0 0 0 0 0 0 0 0 0 0 0 0 127 0" result="hardAlpha"/>
<feOffset dx="-1" dy="3"/>
<feGaussianBlur stdDeviation="2"/>
<feComposite in2="hardAlpha" operator="out"/>
<feColorMatrix type="matrix" values="0 0 0 0 0 0 0 0 0 0 0 0 0 0 0 0 0 0 0.25 0"/>
<feBlend mode="normal" in2="BackgroundImageFix" result="effect1_dropShadow_22_13"/>
<feBlend mode="normal" in="SourceGraphic" in2="effect1_dropShadow_22_13" result="shape"/>
<feColorMatrix in="SourceAlpha" type="matrix" values="0 0 0 0 0 0 0 0 0 0 0 0 0 0 0 0 0 0 127 0" result="hardAlpha"/>
<feOffset dy="5"/>
<feGaussianBlur stdDeviation="2"/>
<feComposite in2="hardAlpha" operator="arithmetic" k2="-1" k3="1"/>
<feColorMatrix type="matrix" values="0 0 0 0 1 0 0 0 0 1 0 0 0 0 1 0 0 0 0.47 0"/>
<feBlend mode="normal" in2="shape" result="effect2_innerShadow_22_13"/>
</filter>
<filter id="filter4_di_22_13" x="141.918" y="0.433105" width="40.0149" height="40.155" filterUnits="userSpaceOnUse" color-interpolation-filters="sRGB">
<feFlood flood-opacity="0" result="BackgroundImageFix"/>
<feColorMatrix in="SourceAlpha" type="matrix" values="0 0 0 0 0 0 0 0 0 0 0 0 0 0 0 0 0 0 127 0" result="hardAlpha"/>
<feOffset dx="-1" dy="3"/>
<feGaussianBlur stdDeviation="3"/>
<feComposite in2="hardAlpha" operator="out"/>
<feColorMatrix type="matrix" values="0 0 0 0 0 0 0 0 0 0 0 0 0 0 0 0 0 0 0.25 0"/>
<feBlend mode="normal" in2="BackgroundImageFix" result="effect1_dropShadow_22_13"/>
<feBlend mode="normal" in="SourceGraphic" in2="effect1_dropShadow_22_13" result="shape"/>
<feColorMatrix in="SourceAlpha" type="matrix" values="0 0 0 0 0 0 0 0 0 0 0 0 0 0 0 0 0 0 127 0" result="hardAlpha"/>
<feOffset dy="5"/>
<feGaussianBlur stdDeviation="2"/>
<feComposite in2="hardAlpha" operator="arithmetic" k2="-1" k3="1"/>
<feColorMatrix type="matrix" values="0 0 0 0 1 0 0 0 0 1 0 0 0 0 1 0 0 0 0.47 0"/>
<feBlend mode="normal" in2="shape" result="effect2_innerShadow_22_13"/>
</filter>
</defs>
</svg>
