<svg width="179" height="37" viewBox="0 0 179 37" fill="none" xmlns="http://www.w3.org/2000/svg">
<g filter="url(#filter0_di_22_13)">
<path d="M17.9687 3.14195C18.2564 2.19698 19.5942 2.19698 19.8819 3.14196L22.2329 10.8634C22.3611 11.2844 22.7495 11.5721 23.1896 11.5721H30.9288C31.8818 11.5721 32.2946 12.7785 31.5416 13.3624L25.1709 18.3018C24.843 18.5561 24.7062 18.9864 24.827 19.3834L27.2336 27.2877C27.5176 28.2205 26.4349 28.9667 25.6642 28.3692L19.538 23.6194C19.1774 23.3398 18.6732 23.3398 18.3126 23.6194L12.1863 28.3692C11.4157 28.9667 10.3329 28.2205 10.617 27.2876L13.0236 19.3834C13.1445 18.9864 13.0076 18.5561 12.6797 18.3018L6.30905 13.3624C5.55597 12.7785 5.96887 11.5721 6.92179 11.5721H14.6611C15.1012 11.5721 15.4895 11.2844 15.6177 10.8634L17.9687 3.14195Z" fill="#F4BF00"/>
</g>
<g filter="url(#filter1_di_22_13)">
<path d="M54.663 3.14195C54.9507 2.19698 56.2886 2.19698 56.5763 3.14196L58.9273 10.8634C59.0554 11.2844 59.4438 11.5721 59.8839 11.5721H67.6232C68.5761 11.5721 68.989 12.7785 68.2359 13.3624L61.8653 18.3018C61.5374 18.5561 61.4005 18.9864 61.5214 19.3834L63.9279 27.2877C64.212 28.2205 63.1292 28.9667 62.3586 28.3692L56.2324 23.6194C55.8717 23.3398 55.3675 23.3398 55.0069 23.6194L48.8807 28.3692C48.11 28.9667 47.0273 28.2205 47.3113 27.2876L49.7179 19.3834C49.8388 18.9864 49.702 18.5561 49.374 18.3018L43.0034 13.3624C42.2503 12.7785 42.6632 11.5721 43.6161 11.5721H51.3554C51.7955 11.5721 52.1839 11.2844 52.312 10.8634L54.663 3.14195Z" fill="#F4BF00"/>
</g>
<g filter="url(#filter2_di_22_13)">
<path d="M91.3573 3.14195C91.6451 2.19698 92.9829 2.19698 93.2706 3.14196L95.6216 10.8634C95.7498 11.2844 96.1381 11.5721 96.5782 11.5721H104.318C105.27 11.5721 105.683 12.7785 104.93 13.3624L98.5596 18.3018C98.2317 18.5561 98.0949 18.9864 98.2157 19.3834L100.622 27.2877C100.906 28.2205 99.8235 28.9667 99.0529 28.3692L92.9267 23.6194C92.5661 23.3398 92.0619 23.3398 91.7012 23.6194L85.575 28.3692C84.8044 28.9667 83.7216 28.2205 84.0056 27.2876L86.4123 19.3834C86.5331 18.9864 86.3963 18.5561 86.0684 18.3018L79.6977 13.3624C78.9446 12.7785 79.3575 11.5721 80.3105 11.5721H88.0497C88.4898 11.5721 88.8782 11.2844 89.0064 10.8634L91.3573 3.14195Z" fill="#F4BF00"/>
</g>
<g filter="url(#filter3_di_22_13)">
<path d="M128.052 3.88072C128.34 2.93575 129.678 2.93575 129.965 3.88073L132.316 11.6022C132.445 12.0232 132.833 12.3109 133.273 12.3109H141.012C141.965 12.3109 142.378 13.5173 141.625 14.1012L135.254 19.0406C134.927 19.2948 134.79 19.7252 134.911 20.1221L137.317 28.0264C137.601 28.9593 136.518 29.7055 135.748 29.108L129.622 24.3582C129.261 24.0786 128.757 24.0786 128.396 24.3582L122.27 29.108C121.499 29.7055 120.416 28.9593 120.7 28.0264L123.107 20.1221C123.228 19.7252 123.091 19.2948 122.763 19.0406L116.393 14.1012C115.639 13.5173 116.052 12.3109 117.005 12.3109H124.745C125.185 12.3109 125.573 12.0232 125.701 11.6022L128.052 3.88072Z" fill="#F4BF00"/>
</g>
<g filter="url(#filter4_di_22_13)">
<path d="M161.924 3.14195C162.211 2.19698 163.549 2.19698 163.837 3.14196L166.188 10.8634C166.316 11.2844 166.705 11.5721 167.145 11.5721H174.884C175.837 11.5721 176.25 12.7785 175.497 13.3624L169.126 18.3018C168.798 18.5561 168.661 18.9864 168.782 19.3834L171.189 27.2877C171.473 28.2205 170.39 28.9667 169.619 28.3692L163.493 23.6194C163.132 23.3398 162.628 23.3398 162.268 23.6194L156.141 28.3692C155.371 28.9667 154.288 28.2205 154.572 27.2876L156.979 19.3834C157.1 18.9864 156.963 18.5561 156.635 18.3018L150.264 13.3624C149.511 12.7785 149.924 11.5721 150.877 11.5721H158.616C159.056 11.5721 159.445 11.2844 159.573 10.8634L161.924 3.14195Z" fill="#F4BF00"/>
</g>
<defs>
<filter id="filter0_di_22_13" x="0.9198" y="1.43311" width="34.011" height="34.1504" filterUnits="userSpaceOnUse" color-interpolation-filters="sRGB">
<feFlood flood-opacity="0" result="BackgroundImageFix"/>
<feColorMatrix in="SourceAlpha" type="matrix" values="0 0 0 0 0 0 0 0 0 0 0 0 0 0 0 0 0 0 127 0" result="hardAlpha"/>
<feOffset dx="-1" dy="3"/>
<feGaussianBlur stdDeviation="2"/>
<feComposite in2="hardAlpha" operator="out"/>
<feColorMatrix type="matrix" values="0 0 0 0 0 0 0 0 0 0 0 0 0 0 0 0 0 0 0.25 0"/>
<feBlend mode="normal" in2="BackgroundImageFix" result="effect1_dropShadow_22_13"/>
<feBlend mode="normal" in="SourceGraphic" in2="effect1_dropShadow_22_13" result="shape"/>
<feColorMatrix in="SourceAlpha" type="matrix" values="0 0 0 0 0 0 0 0 0 0 0 0 0 0 0 0 0 0 127 0" result="hardAlpha"/>
<feOffset dy="5"/>
<feGaussianBlur stdDeviation="2"/>
<feComposite in2="hardAlpha" operator="arithmetic" k2="-1" k3="1"/>
<feColorMatrix type="matrix" values="0 0 0 0 1 0 0 0 0 1 0 0 0 0 1 0 0 0 0.47 0"/>
<feBlend mode="normal" in2="shape" result="effect2_innerShadow_22_13"/>
</filter>
<filter id="filter1_di_22_13" x="37.6141" y="1.43311" width="34.011" height="34.1504" filterUnits="userSpaceOnUse" color-interpolation-filters="sRGB">
<feFlood flood-opacity="0" result="BackgroundImageFix"/>
<feColorMatrix in="SourceAlpha" type="matrix" values="0 0 0 0 0 0 0 0 0 0 0 0 0 0 0 0 0 0 127 0" result="hardAlpha"/>
<feOffset dx="-1" dy="3"/>
<feGaussianBlur stdDeviation="2"/>
<feComposite in2="hardAlpha" operator="out"/>
<feColorMatrix type="matrix" values="0 0 0 0 0 0 0 0 0 0 0 0 0 0 0 0 0 0 0.25 0"/>
<feBlend mode="normal" in2="BackgroundImageFix" result="effect1_dropShadow_22_13"/>
<feBlend mode="normal" in="SourceGraphic" in2="effect1_dropShadow_22_13" result="shape"/>
<feColorMatrix in="SourceAlpha" type="matrix" values="0 0 0 0 0 0 0 0 0 0 0 0 0 0 0 0 0 0 127 0" result="hardAlpha"/>
<feOffset dy="5"/>
<feGaussianBlur stdDeviation="2"/>
<feComposite in2="hardAlpha" operator="arithmetic" k2="-1" k3="1"/>
<feColorMatrix type="matrix" values="0 0 0 0 1 0 0 0 0 1 0 0 0 0 1 0 0 0 0.47 0"/>
<feBlend mode="normal" in2="shape" result="effect2_innerShadow_22_13"/>
</filter>
<filter id="filter2_di_22_13" x="74.3085" y="1.43311" width="34.011" height="34.1504" filterUnits="userSpaceOnUse" color-interpolation-filters="sRGB">
<feFlood flood-opacity="0" result="BackgroundImageFix"/>
<feColorMatrix in="SourceAlpha" type="matrix" values="0 0 0 0 0 0 0 0 0 0 0 0 0 0 0 0 0 0 127 0" result="hardAlpha"/>
<feOffset dx="-1" dy="3"/>
<feGaussianBlur stdDeviation="2"/>
<feComposite in2="hardAlpha" operator="out"/>
<feColorMatrix type="matrix" values="0 0 0 0 0 0 0 0 0 0 0 0 0 0 0 0 0 0 0.25 0"/>
<feBlend mode="normal" in2="BackgroundImageFix" result="effect1_dropShadow_22_13"/>
<feBlend mode="normal" in="SourceGraphic" in2="effect1_dropShadow_22_13" result="shape"/>
<feColorMatrix in="SourceAlpha" type="matrix" values="0 0 0 0 0 0 0 0 0 0 0 0 0 0 0 0 0 0 127 0" result="hardAlpha"/>
<feOffset dy="5"/>
<feGaussianBlur stdDeviation="2"/>
<feComposite in2="hardAlpha" operator="arithmetic" k2="-1" k3="1"/>
<feColorMatrix type="matrix" values="0 0 0 0 1 0 0 0 0 1 0 0 0 0 1 0 0 0 0.47 0"/>
<feBlend mode="normal" in2="shape" result="effect2_innerShadow_22_13"/>
</filter>
<filter id="filter3_di_22_13" x="111.003" y="2.17188" width="34.011" height="34.1504" filterUnits="userSpaceOnUse" color-interpolation-filters="sRGB">
<feFlood flood-opacity="0" result="BackgroundImageFix"/>
<feColorMatrix in="SourceAlpha" type="matrix" values="0 0 0 0 0 0 0 0 0 0 0 0 0 0 0 0 0 0 127 0" result="hardAlpha"/>
<feOffset dx="-1" dy="3"/>
<feGaussianBlur stdDeviation="2"/>
<feComposite in2="hardAlpha" operator="out"/>
<feColorMatrix type="matrix" values="0 0 0 0 0 0 0 0 0 0 0 0 0 0 0 0 0 0 0.25 0"/>
<feBlend mode="normal" in2="BackgroundImageFix" result="effect1_dropShadow_22_13"/>
<feBlend mode="normal" in="SourceGraphic" in2="effect1_dropShadow_22_13" result="shape"/>
<feColorMatrix in="SourceAlpha" type="matrix" values="0 0 0 0 0 0 0 0 0 0 0 0 0 0 0 0 0 0 127 0" result="hardAlpha"/>
<feOffset dy="5"/>
<feGaussianBlur stdDeviation="2"/>
<feComposite in2="hardAlpha" operator="arithmetic" k2="-1" k3="1"/>
<feColorMatrix type="matrix" values="0 0 0 0 1 0 0 0 0 1 0 0 0 0 1 0 0 0 0.47 0"/>
<feBlend mode="normal" in2="shape" result="effect2_innerShadow_22_13"/>
</filter>
<filter id="filter4_di_22_13" x="144.875" y="1.43311" width="34.011" height="34.1504" filterUnits="userSpaceOnUse" color-interpolation-filters="sRGB">
<feFlood flood-opacity="0" result="BackgroundImageFix"/>
<feColorMatrix in="SourceAlpha" type="matrix" values="0 0 0 0 0 0 0 0 0 0 0 0 0 0 0 0 0 0 127 0" result="hardAlpha"/>
<feOffset dx="-1" dy="3"/>
<feGaussianBlur stdDeviation="2"/>
<feComposite in2="hardAlpha" operator="out"/>
<feColorMatrix type="matrix" values="0 0 0 0 0 0 0 0 0 0 0 0 0 0 0 0 0 0 0.25 0"/>
<feBlend mode="normal" in2="BackgroundImageFix" result="effect1_dropShadow_22_13"/>
<feBlend mode="normal" in="SourceGraphic" in2="effect1_dropShadow_22_13" result="shape"/>
<feColorMatrix in="SourceAlpha" type="matrix" values="0 0 0 0 0 0 0 0 0 0 0 0 0 0 0 0 0 0 127 0" result="hardAlpha"/>
<feOffset dy="5"/>
<feGaussianBlur stdDeviation="2"/>
<feComposite in2="hardAlpha" operator="arithmetic" k2="-1" k3="1"/>
<feColorMatrix type="matrix" values="0 0 0 0 1 0 0 0 0 1 0 0 0 0 1 0 0 0 0.47 0"/>
<feBlend mode="normal" in2="shape" result="effect2_innerShadow_22_13"/>
</filter>
</defs>
</svg>
